<?xml version="1.0" standalone="no"?>
<!DOCTYPE svg PUBLIC "-//W3C//DTD SVG 20010904//EN"
 "http://www.w3.org/TR/2001/REC-SVG-20010904/DTD/svg10.dtd">
<svg version="1.0" xmlns="http://www.w3.org/2000/svg"
 width="64.000000pt" height="64.000000pt" viewBox="0 0 64.000000 64.000000"
 preserveAspectRatio="xMidYMid meet">

<g transform="translate(0.000000,64.000000) scale(0.100000,-0.100000)"
fill="#000000" stroke="none">
<path d="M73 625 c-51 -22 -38 -65 19 -65 35 0 35 -7 -2 -49 -26 -29 -30 -42
-30 -91 0 -49 -5 -63 -31 -96 -35 -44 -33 -74 7 -111 31 -28 44 -29 44 -3 0
11 5 20 10 20 6 0 20 16 31 35 17 28 24 33 35 24 8 -6 14 -18 14 -25 0 -13 39
-20 78 -15 10 2 10 -5 -2 -28 -18 -35 -36 -48 -36 -28 0 18 -27 30 -35 17 -4
-6 -3 -15 1 -21 4 -7 -8 -10 -37 -9 -66 4 -89 1 -89 -10 0 -6 -9 -20 -20 -32
-26 -28 -27 -89 -2 -111 23 -21 76 -22 95 -3 13 13 17 13 33 1 25 -19 54 -19
54 0 0 19 19 19 26 0 10 -24 41 -18 48 9 3 13 13 27 22 30 13 5 14 1 9 -24 -6
-26 -4 -30 14 -30 12 0 21 5 21 10 0 6 11 10 25 10 14 0 25 -4 25 -10 0 -5 9
-10 20 -10 24 0 25 7 5 55 -12 28 -13 40 -4 51 21 26 29 14 29 -46 0 -53 2
-60 20 -60 17 0 20 7 20 44 0 25 5 48 10 51 6 4 10 -8 10 -28 0 -42 26 -67 68
-67 27 0 35 6 48 34 15 30 15 36 -1 69 -9 19 -25 37 -35 40 -16 4 -15 10 16
72 28 56 34 79 34 132 0 47 -4 65 -15 69 -8 4 -15 12 -15 20 0 17 -66 86 -97
102 -27 15 -78 15 -101 1 -13 -8 -32 -6 -79 10 -34 12 -71 21 -80 21 -10 0
-30 14 -45 30 -30 34 -79 40 -135 15z m437 -450 c0 -18 -24 -30 -40 -20 -8 5
-5 11 7 21 24 18 33 17 33 -1z m-312 -43 c5 -31 -15 -27 -21 3 -3 16 0 24 7
22 6 -2 12 -13 14 -25z m-128 -42 c0 -16 5 -30 10 -30 6 0 10 -4 10 -10 0 -5
-8 -10 -19 -10 -19 0 -30 29 -23 63 6 28 22 19 22 -13z m525 10 c9 -29 -4 -62
-23 -58 -12 2 -18 15 -20 41 -3 31 0 37 17 37 11 0 22 -9 26 -20z m-205 -32
c0 -5 -7 -8 -15 -8 -17 0 -18 2 -9 25 5 13 8 14 15 3 5 -7 9 -16 9 -20z"/>
</g>
</svg>
