<svg version="1.1" id="Layer_1" xmlns="http://www.w3.org/2000/svg" xmlns:xlink="http://www.w3.org/1999/xlink" x="0px" y="0px"
	 width="100%" viewBox="0 0 64 64" enable-background="new 0 0 64 64" xml:space="preserve">
<path fill="#FFFFFF" opacity="1.000000" stroke="none" 
	d="
M20.000000,1.000000 
	C34.901302,1.000000 49.802601,1.000000 65.000000,1.000000 
	C65.000000,8.018047 65.000000,15.040241 64.911148,22.260132 
	C64.463348,22.382048 64.104401,22.306265 63.758091,21.891291 
	C60.785866,17.887112 57.861546,14.169274 54.754734,10.610759 
	C54.254787,10.038126 52.941048,10.175983 51.827621,9.657797 
	C50.428097,9.305425 49.204445,9.280662 47.707573,9.166405 
	C45.624630,9.394061 43.814907,9.711210 41.588772,10.015509 
	C39.786255,9.989121 38.400150,9.975587 36.867645,9.677630 
	C36.102131,9.277246 35.483025,9.161284 34.744217,8.703159 
	C33.364498,8.019949 32.104477,7.678901 30.737465,6.975437 
	C28.442343,6.319786 26.254210,6.026549 23.841476,5.433006 
	C22.411251,3.755133 21.205626,2.377566 20.000000,1.000000 
z"/>
<path fill="#FFFFFF" opacity="1.000000" stroke="none" 
	d="
M1.000000,33.000000 
	C1.000000,22.333309 1.000000,11.666616 1.000000,1.000000 
	C2.369931,1.000000 3.685003,1.000000 5.729725,1.281481 
	C6.618522,1.745538 6.777668,1.928114 6.521985,2.139879 
	C5.564503,3.950024 4.302958,7.141213 4.592850,7.288991 
	C6.926981,8.478860 9.553332,9.095491 11.860956,10.191032 
	C11.441685,10.662901 11.251856,10.831007 11.096897,11.007960 
	C11.131767,11.016809 11.190361,10.968622 10.761797,11.261833 
	C10.361354,12.360251 10.389474,13.165458 10.470510,13.969360 
	C10.523429,13.968057 10.424824,13.989707 10.125219,13.879518 
	C9.218393,14.518824 8.611170,15.268318 7.712267,16.103630 
	C7.249245,16.761820 7.077902,17.334196 6.680508,17.955883 
	C6.454456,18.005194 6.015656,18.152094 5.753614,18.178722 
	C5.525650,18.649296 5.559728,19.093243 5.611151,19.755100 
	C5.628496,19.973015 5.953709,20.262466 5.953709,20.262466 
	C5.953709,20.262466 6.388544,20.255821 6.534991,20.307220 
	C6.681438,20.358618 6.839902,20.091703 6.732939,20.205910 
	C6.625975,20.320116 6.744859,20.609606 6.383686,20.739040 
	C5.946447,23.112038 5.870382,25.355600 5.773450,27.830070 
	C5.215956,29.383974 4.679328,30.706968 3.792788,32.133030 
	C2.628583,32.490730 1.814291,32.745365 1.000000,33.000000 
z"/>
<path fill="#010101" opacity="1.000000" stroke="none" 
	d="
M9.000000,65.000000 
	C8.555664,65.000000 8.111328,65.000000 7.181157,64.665222 
	C1.655882,63.572845 2.111184,59.527847 1.826538,55.651054 
	C2.311054,53.909725 2.677966,52.513252 3.283523,51.040821 
	C3.709110,50.698437 3.896053,50.432003 4.315447,50.113113 
	C4.547897,50.060650 4.993017,49.890327 5.302461,49.926117 
	C6.017007,49.875263 6.422108,49.788620 7.179126,49.778397 
	C8.451441,49.676254 9.371839,49.497681 10.596485,49.336250 
	C11.262231,48.948441 11.623729,48.543488 12.193956,48.154373 
	C12.402685,48.170208 12.808429,48.273392 12.680314,48.597954 
	C12.661759,49.596252 12.771319,50.269989 12.946625,51.260361 
	C12.380090,52.573635 11.747808,53.570267 10.803859,54.411934 
	C10.261074,54.250816 10.029959,54.244659 9.809347,54.207497 
	C9.819852,54.176487 9.763813,54.142624 9.783245,53.864471 
	C9.482526,53.478725 9.162374,53.371128 8.629039,53.229301 
	C8.415854,53.195076 7.989200,53.261715 7.688580,53.154961 
	C6.977894,53.373703 6.567830,53.699207 6.041130,54.328682 
	C5.926377,55.766178 5.928261,56.899700 6.031685,58.331551 
	C6.685592,58.409012 7.237957,58.188145 7.873143,57.652256 
	C8.554486,56.801907 9.153008,56.266582 10.037359,55.900177 
	C10.544475,56.073902 10.765761,56.078716 11.324636,56.144154 
	C12.118505,56.184540 12.574787,56.164307 13.246311,56.373363 
	C13.696087,57.395164 13.930619,58.187675 14.098767,59.359390 
	C14.065198,60.505241 14.098013,61.271881 13.952169,62.341347 
	C12.182341,63.429451 10.591171,64.214729 9.000000,65.000000 
z"/>
<path fill="#000000" opacity="1.000000" stroke="none" 
	d="
M60.000000,65.000000 
	C59.250000,65.000000 58.500000,65.000000 57.239838,64.671158 
	C50.528866,61.998547 52.143024,56.664959 52.324696,51.970627 
	C52.870274,51.752796 53.099182,51.564896 53.328094,51.376995 
	C52.496025,51.210663 51.663956,51.044331 50.965885,50.619873 
	C51.453106,49.932384 51.806328,49.503021 52.490875,49.096497 
	C53.707401,49.089382 54.592609,49.059437 55.701195,49.284618 
	C56.354748,49.559055 56.784927,49.578365 57.604153,49.617615 
	C60.918304,49.804932 63.586094,50.334503 64.009666,54.379841 
	C64.038940,56.255814 64.120674,57.701096 64.143768,59.501102 
	C62.723415,61.570553 61.361706,63.285275 60.000000,65.000000 
M59.003845,61.415718 
	C59.347393,60.374702 59.997715,59.324173 59.965801,58.294796 
	C59.911911,56.556740 59.425964,54.832077 59.121696,53.101784 
	C58.041946,53.291985 56.196369,53.216358 56.021336,53.720604 
	C55.416901,55.461887 54.972061,57.487148 55.311340,59.240818 
	C55.511532,60.275566 57.305164,61.002033 59.003845,61.415718 
z"/>
<path fill="#848484" opacity="1.000000" stroke="none" 
	d="
M52.008026,52.000557 
	C52.143024,56.664959 50.528866,61.998547 56.864838,64.671158 
	C41.312439,65.000000 25.624876,65.000000 9.468658,65.000000 
	C10.591171,64.214729 12.182341,63.429451 14.290230,62.323505 
	C15.486859,62.015713 16.166769,62.028595 16.928776,62.411049 
	C19.213142,62.780628 21.415409,62.780628 24.446611,62.780628 
	C25.345261,65.105751 27.584965,64.173027 30.246296,61.994392 
	C30.719032,62.037376 30.906887,62.066750 31.080757,62.479698 
	C32.559258,62.901245 34.061722,63.062756 35.541489,62.943245 
	C37.094196,62.817848 38.704693,61.978973 40.149162,62.237736 
	C43.227455,62.789188 46.214649,63.849144 49.242599,64.701691 
	C49.999329,59.695606 50.574223,55.892460 51.364491,52.073418 
	C51.579868,52.057526 52.008026,52.000557 52.008026,52.000557 
z"/>
<path fill="#1E232E" opacity="1.000000" stroke="none" 
	d="
M12.090399,9.887270 
	C9.553332,9.095491 6.926981,8.478860 4.592850,7.288991 
	C4.302958,7.141213 5.564503,3.950024 6.778001,2.149724 
	C7.965897,1.753585 8.482948,1.376793 9.000000,1.000000 
	C9.444445,1.000000 9.888889,1.000000 10.802828,1.326104 
	C12.181531,3.430731 13.090740,5.209254 13.977088,7.294809 
	C13.332951,8.363650 12.711675,9.125460 12.090399,9.887270 
z"/>
<path fill="#303743" opacity="1.000000" stroke="none" 
	d="
M13.999950,6.987778 
	C13.090740,5.209254 12.181531,3.430731 11.136160,1.326104 
	C13.700013,1.000000 16.400026,1.000000 19.550020,1.000000 
	C21.205626,2.377566 22.411251,3.755133 23.741383,5.743208 
	C20.577244,6.565070 17.288597,6.776424 13.999950,6.987778 
z"/>
<path fill="#878787" opacity="1.000000" stroke="none" 
	d="
M64.062126,53.949150 
	C63.586094,50.334503 60.918304,49.804932 57.596176,49.466206 
	C57.199150,49.294861 57.030121,49.041687 57.185173,48.754295 
	C58.906376,47.310333 60.472527,46.153767 62.359699,44.887726 
	C63.453812,45.185497 64.226906,45.592747 65.000000,46.000000 
	C65.000000,48.370556 65.000000,50.741116 64.763634,53.578178 
	C64.527267,54.044682 64.062126,53.949150 64.062126,53.949150 
z"/>
<path fill="#263341" opacity="1.000000" stroke="none" 
	d="
M65.000000,28.000000 
	C65.000000,29.714376 65.000000,31.428751 64.730896,33.784164 
	C64.275322,35.313698 64.088852,36.202198 63.656960,36.938744 
	C62.911312,36.209385 62.411083,35.631969 61.918770,34.729797 
	C61.614609,33.606113 61.302536,32.807198 60.987328,31.636581 
	C59.997440,30.503910 59.010685,29.742933 58.047737,28.659275 
	C58.381321,27.531586 58.691101,26.726580 59.334343,25.932674 
	C60.112656,25.939121 60.557510,25.934467 61.060600,26.294018 
	C62.412556,27.105482 63.706280,27.552740 65.000000,28.000000 
z"/>
<path fill="#848484" opacity="1.000000" stroke="none" 
	d="
M1.708935,55.995903 
	C2.111184,59.527847 1.655882,63.572845 6.847661,64.665222 
	C5.066496,65.000000 3.132993,65.000000 1.000000,65.000000 
	C1.000000,62.329002 1.000000,59.655552 1.177213,56.486458 
	C1.354426,55.990814 1.708935,55.995903 1.708935,55.995903 
z"/>
<path fill="#878787" opacity="1.000000" stroke="none" 
	d="
M1.826538,55.651054 
	C1.708935,55.995903 1.354426,55.990814 1.177213,55.995407 
	C1.000000,53.629444 1.000000,51.258884 1.158875,48.348007 
	C1.382185,47.703510 1.524490,47.539494 1.498081,47.505131 
	C1.355084,47.319057 1.170351,47.165054 1.000000,47.000000 
	C1.000000,47.000000 1.000000,46.500000 1.229616,46.207230 
	C1.459231,45.914455 1.888979,45.731346 2.121447,45.899223 
	C2.569394,46.378513 2.784872,46.689926 3.000686,47.250443 
	C3.001021,47.499550 3.002032,47.999104 3.001018,48.387650 
	C3.014962,49.556393 3.029920,50.336582 3.044879,51.116776 
	C2.677966,52.513252 2.311054,53.909725 1.826538,55.651054 
z"/>
<path fill="#818D94" opacity="1.000000" stroke="none" 
	d="
M3.000351,47.001339 
	C2.784872,46.689926 2.569394,46.378513 2.125283,45.638367 
	C1.597768,44.806423 1.298884,44.403210 1.000000,44.000000 
	C1.000000,43.250000 1.000000,42.500000 1.261911,41.171013 
	C1.728168,40.507034 1.932516,40.422043 2.294213,40.632217 
	C3.327125,41.578941 4.202688,42.230495 5.041682,43.228630 
	C5.016861,44.037785 5.028608,44.500359 5.032117,45.199440 
	C5.023878,45.435944 5.009649,45.909027 4.797472,46.039444 
	C4.304722,46.374294 4.126409,46.645844 4.037919,46.988861 
	C4.025482,46.993217 4.000793,47.002377 3.750484,47.001320 
	C3.500175,47.000259 3.000351,47.001339 3.000351,47.001339 
z"/>
<path fill="#202733" opacity="1.000000" stroke="none" 
	d="
M65.000000,27.625000 
	C63.706280,27.552740 62.412556,27.105482 61.237232,26.042309 
	C61.983910,24.889818 62.612190,24.353247 63.485950,23.829041 
	C63.731430,23.841406 64.218498,23.907890 64.266510,24.137901 
	C64.487404,24.638891 64.715904,24.849586 65.000000,25.000000 
	C65.000000,25.750000 65.000000,26.500000 65.000000,27.625000 
z"/>
<path fill="#848484" opacity="1.000000" stroke="none" 
	d="
M60.499962,65.000000 
	C61.361706,63.285275 62.723415,61.570553 64.346008,59.481384 
	C64.606895,59.106945 65.000000,59.000000 65.000000,59.000000 
	C65.000000,60.904778 65.000000,62.809555 65.000000,65.000000 
	C63.671467,65.000000 62.335693,65.000000 60.499962,65.000000 
z"/>
<path fill="#35363D" opacity="1.000000" stroke="none" 
	d="
M1.000000,33.375000 
	C1.814291,32.745365 2.628583,32.490730 4.148118,32.080364 
	C5.571393,31.937521 6.289425,31.950407 7.003344,32.299217 
	C6.989260,33.081726 6.979288,33.528316 6.611698,33.982979 
	C5.186404,34.320835 4.118729,34.650612 2.822712,35.090027 
	C2.396540,35.466885 2.198708,35.734108 1.750655,36.002758 
	C1.333622,36.002792 1.166811,36.001396 1.000000,36.000000 
	C1.000000,35.250000 1.000000,34.500000 1.000000,33.375000 
z"/>
<path fill="#FFFFFF" opacity="1.000000" stroke="none" 
	d="
M65.000000,45.583336 
	C64.226906,45.592747 63.453812,45.185497 62.565617,44.604340 
	C62.912090,43.111820 63.373665,41.793209 64.194550,40.454937 
	C64.702568,40.623516 64.851280,40.811756 65.000000,41.000000 
	C65.000000,42.388889 65.000000,43.777779 65.000000,45.583336 
z"/>
<path fill="#3A4551" opacity="1.000000" stroke="none" 
	d="
M65.000000,40.562500 
	C64.851280,40.811756 64.702568,40.623516 64.156860,40.116974 
	C63.807365,38.896015 63.854874,37.993355 63.902382,37.090694 
	C64.088852,36.202198 64.275322,35.313698 64.730896,34.212601 
	C65.000000,36.041668 65.000000,38.083332 65.000000,40.562500 
z"/>
<path fill="#363336" opacity="1.000000" stroke="none" 
	d="
M1.000000,36.416664 
	C1.166811,36.001396 1.333622,36.002792 1.750136,36.238785 
	C1.999838,36.473381 1.992677,36.945419 1.995049,37.289528 
	C2.043902,38.534775 2.090383,39.435913 2.136863,40.337048 
	C1.932516,40.422043 1.728168,40.507034 1.261911,40.796013 
	C1.000000,39.611111 1.000000,38.222221 1.000000,36.416664 
z"/>
<path fill="#454545" opacity="1.000000" stroke="none" 
	d="
M65.000000,58.583336 
	C65.000000,59.000000 64.606895,59.106945 64.404648,59.126663 
	C64.120674,57.701096 64.038940,56.255814 64.009666,54.379841 
	C64.062126,53.949150 64.527267,54.044682 64.763634,54.022339 
	C65.000000,55.388889 65.000000,56.777779 65.000000,58.583336 
z"/>
<path fill="#32343C" opacity="1.000000" stroke="none" 
	d="
M8.625000,1.000000 
	C8.482948,1.376793 7.965897,1.753585 7.192830,2.120533 
	C6.777668,1.928114 6.618522,1.745538 6.229688,1.281481 
	C6.750000,1.000000 7.500000,1.000000 8.625000,1.000000 
z"/>
<path fill="#838788" opacity="1.000000" stroke="none" 
	d="
M1.000000,44.333332 
	C1.298884,44.403210 1.597768,44.806423 1.892815,45.470490 
	C1.888979,45.731346 1.459231,45.914455 1.229616,45.957230 
	C1.000000,45.555553 1.000000,45.111111 1.000000,44.333332 
z"/>
<path fill="#685958" opacity="1.000000" stroke="none" 
	d="
M64.218498,23.907890 
	C64.218498,23.907890 63.731430,23.841406 63.567131,23.418715 
	C63.517036,22.740843 63.631248,22.485662 63.745457,22.230484 
	C64.104401,22.306265 64.463348,22.382048 64.911148,22.728916 
	C65.000000,23.000000 65.000000,23.500000 64.806274,23.712984 
	C64.612549,23.925968 64.218498,23.907890 64.218498,23.907890 
z"/>
<path fill="#584148" opacity="1.000000" stroke="none" 
	d="
M64.266510,24.137901 
	C64.218498,23.907890 64.612549,23.925968 64.806274,23.962984 
	C65.000000,24.000000 65.000000,24.500000 65.000000,24.750000 
	C64.715904,24.849586 64.487404,24.638891 64.266510,24.137901 
z"/>
<path fill="#A69777" opacity="1.000000" stroke="none" 
	d="
M1.000000,47.250000 
	C1.170351,47.165054 1.355084,47.319057 1.498081,47.505131 
	C1.524490,47.539494 1.382185,47.703510 1.158875,47.903843 
	C1.000000,48.000000 1.000000,47.500000 1.000000,47.250000 
z"/>
<path fill="#29323E" opacity="1.000000" stroke="none" 
	d="
M37.014050,9.962053 
	C38.400150,9.975587 39.786255,9.989121 41.611237,10.362848 
	C42.367058,11.815050 42.683998,12.907061 42.866112,14.284387 
	C41.816368,15.716482 40.901443,16.863260 39.539917,18.007416 
	C34.728775,18.338728 30.364237,18.672665 25.613237,18.997734 
	C21.432619,18.812492 19.384169,16.801514 19.348892,12.886734 
	C22.803019,12.126241 25.897112,11.532227 29.405670,10.959716 
	C31.202370,10.979575 32.584602,10.977930 34.268795,11.002991 
	C35.385185,10.673816 36.199619,10.317935 37.014050,9.962053 
z"/>
<path fill="#120E13" opacity="1.000000" stroke="none" 
	d="
M28.991203,10.938212 
	C25.897112,11.532227 22.803019,12.126241 19.016514,12.864117 
	C17.879869,13.010204 17.435640,13.012429 16.776726,12.771814 
	C15.263476,12.977067 13.964913,13.425162 12.510498,13.897982 
	C12.354645,13.922707 12.045354,13.985516 12.022884,13.988802 
	C12.000414,13.992089 12.040266,14.013507 11.789865,13.813342 
	C11.165508,13.732340 10.791551,13.851501 10.417593,13.970665 
	C10.389474,13.165458 10.361354,12.360251 10.779266,11.422555 
	C11.225299,11.290066 11.388710,11.013611 11.388710,11.013611 
	C11.388710,11.013611 11.062027,10.999112 11.062027,10.999112 
	C11.251856,10.831007 11.441685,10.662901 11.860956,10.191032 
	C12.711675,9.125460 13.332951,8.363650 13.977089,7.294809 
	C17.288597,6.776424 20.577244,6.565070 23.965984,6.043515 
	C26.254210,6.026549 28.442343,6.319786 30.518099,7.194422 
	C29.934216,8.829952 29.462709,9.884083 28.991203,10.938212 
z"/>
<path fill="#141319" opacity="1.000000" stroke="none" 
	d="
M63.758091,21.891291 
	C63.631248,22.485662 63.517036,22.740843 63.321648,23.406349 
	C62.612190,24.353247 61.983910,24.889818 61.178997,25.678102 
	C60.557510,25.934467 60.112656,25.939121 59.337990,25.566681 
	C58.998962,24.453257 58.989750,23.716928 58.946686,22.636173 
	C57.935303,21.193663 56.957775,20.095583 55.977760,18.697092 
	C55.689331,17.897306 55.403389,17.397930 55.044609,16.567719 
	C54.049480,15.798890 53.127193,15.360898 52.185078,14.536699 
	C52.096775,13.126311 52.028297,12.102128 51.974327,10.804955 
	C51.993721,10.349777 51.998611,10.167591 52.003498,9.985405 
	C52.941048,10.175983 54.254787,10.038126 54.754734,10.610759 
	C57.861546,14.169274 60.785866,17.887112 63.758091,21.891291 
z"/>
<path fill="#0C0B11" opacity="1.000000" stroke="none" 
	d="
M43.000938,13.999069 
	C42.683998,12.907061 42.367058,11.815050 42.027653,10.375700 
	C43.814907,9.711210 45.624630,9.394061 47.708427,9.494746 
	C48.620831,10.617818 49.259151,11.323054 49.761440,12.317336 
	C49.082550,13.738031 48.539696,14.869682 47.694889,16.025043 
	C46.994865,16.108150 46.596798,16.167543 45.914330,16.065247 
	C44.753605,15.268727 43.877274,14.633899 43.000938,13.999069 
z"/>
<path fill="#141118" opacity="1.000000" stroke="none" 
	d="
M29.405670,10.959716 
	C29.462709,9.884083 29.934216,8.829952 30.625088,7.556838 
	C32.104477,7.678901 33.364498,8.019949 34.499588,8.850424 
	C34.238712,9.885328 34.102776,10.430807 33.966835,10.976285 
	C32.584602,10.977930 31.202370,10.979575 29.405670,10.959716 
z"/>
<path fill="#181920" opacity="1.000000" stroke="none" 
	d="
M49.897472,12.028292 
	C49.259151,11.323054 48.620831,10.617818 47.981651,9.584240 
	C49.204445,9.280662 50.428097,9.305425 51.827621,9.657797 
	C51.998611,10.167591 51.993721,10.349777 51.679543,10.825539 
	C50.879322,11.422173 50.388397,11.725232 49.897472,12.028292 
z"/>
<path fill="#252933" opacity="1.000000" stroke="none" 
	d="
M34.268795,11.002991 
	C34.102776,10.430807 34.238712,9.885328 34.619286,9.192587 
	C35.483025,9.161284 36.102131,9.277246 36.867645,9.677631 
	C36.199619,10.317935 35.385185,10.673816 34.268795,11.002991 
z"/>
<path fill="#17171D" opacity="1.000000" stroke="none" 
	d="
M7.007456,31.963293 
	C6.289425,31.950407 5.571393,31.937521 4.498032,31.977299 
	C4.679328,30.706968 5.215956,29.383974 6.254892,27.521854 
	C6.955936,26.666647 7.154671,26.350561 7.605213,26.036715 
	C8.192772,26.039858 8.528524,26.040766 9.061017,26.281116 
	C9.838348,26.683718 10.418941,26.846878 11.001435,27.353321 
	C11.022276,28.154741 11.041213,28.612879 10.942703,29.320684 
	C10.548141,30.044659 10.271028,30.518965 9.658355,30.995842 
	C8.551016,31.320040 7.779236,31.641666 7.007456,31.963293 
z"/>
<path fill="#221E23" opacity="1.000000" stroke="none" 
	d="
M8.864277,26.041672 
	C8.528524,26.040766 8.192772,26.039858 7.479244,25.595001 
	C6.982599,23.637234 6.863729,22.123421 6.744859,20.609606 
	C6.744859,20.609606 6.625975,20.320116 7.127793,20.185492 
	C8.419974,20.031439 9.210337,20.012011 10.334913,20.011738 
	C11.114594,20.058798 11.560061,20.086708 12.003859,20.475534 
	C12.001234,21.558367 12.000279,22.280283 11.655266,23.033159 
	C10.495564,24.056639 9.679920,25.049154 8.864277,26.041672 
z"/>
<path fill="#251A1E" opacity="1.000000" stroke="none" 
	d="
M8.003946,16.017813 
	C8.611170,15.268318 9.218393,14.518824 10.529690,13.845374 
	C11.502597,13.952116 11.771432,13.982811 12.040266,14.013507 
	C12.040266,14.013507 12.000414,13.992089 12.091789,14.203917 
	C12.337463,14.684873 12.555017,14.885344 13.106586,15.132414 
	C13.877779,15.559665 14.378206,15.871657 14.877769,16.366619 
	C14.876905,16.549587 14.903402,16.914568 14.578808,16.931946 
	C13.817749,16.964472 13.381285,16.979622 12.581334,16.999195 
	C11.492232,17.022421 10.766618,17.041224 9.742174,17.023272 
	C8.963547,16.663616 8.483747,16.340714 8.003946,16.017813 
z"/>
<path fill="#3A2C2C" opacity="1.000000" stroke="none" 
	d="
M7.712267,16.103630 
	C8.483747,16.340714 8.963547,16.663616 9.726183,17.388527 
	C10.006246,18.524551 10.003472,19.258568 10.000700,19.992584 
	C9.210337,20.012011 8.419974,20.031439 7.234757,20.071285 
	C6.839902,20.091703 6.681438,20.358618 6.759026,19.955482 
	C6.859929,19.003756 6.883244,18.455162 6.906559,17.906570 
	C7.077902,17.334196 7.249245,16.761820 7.712267,16.103630 
z"/>
<path fill="#4F4C4E" opacity="1.000000" stroke="none" 
	d="
M6.383686,20.739040 
	C6.863729,22.123421 6.982599,23.637234 7.227437,25.592762 
	C7.154671,26.350561 6.955936,26.666647 6.275759,27.290947 
	C5.870382,25.355600 5.946447,23.112038 6.383686,20.739040 
z"/>
<path fill="#8C8C8C" opacity="1.000000" stroke="none" 
	d="
M6.680508,17.955883 
	C6.883244,18.455162 6.859929,19.003756 6.612579,19.904083 
	C6.388544,20.255821 5.953709,20.262466 5.953709,20.262466 
	C5.953709,20.262466 5.628496,19.973015 5.742740,19.415882 
	C5.909875,18.623196 5.962766,18.387646 6.015656,18.152094 
	C6.015656,18.152094 6.454456,18.005194 6.680508,17.955883 
z"/>
<path fill="#989998" opacity="1.000000" stroke="none" 
	d="
M5.753614,18.178722 
	C5.962766,18.387646 5.909875,18.623196 5.725395,19.197968 
	C5.559728,19.093243 5.525650,18.649296 5.753614,18.178722 
z"/>
<path fill="#9B9B9B" opacity="1.000000" stroke="none" 
	d="
M11.096897,11.007960 
	C11.062027,10.999112 11.388710,11.013611 11.388710,11.013611 
	C11.388710,11.013611 11.225299,11.290066 11.207830,11.129344 
	C11.190361,10.968622 11.131767,11.016809 11.096897,11.007960 
z"/>
<path fill="#4A484C" opacity="1.000000" stroke="none" 
	d="
M11.789865,13.813342 
	C11.771432,13.982811 11.502597,13.952116 10.829293,13.955564 
	C10.424824,13.989707 10.523429,13.968057 10.470511,13.969360 
	C10.791551,13.851501 11.165508,13.732340 11.789865,13.813342 
z"/>
<path fill="#717276" opacity="1.000000" stroke="none" 
	d="
M11.115527,54.566898 
	C11.747808,53.570267 12.380090,52.573635 13.289405,51.268013 
	C14.020784,50.981251 14.475130,51.003483 14.972218,51.405296 
	C15.573953,54.181747 16.132946,56.578613 16.374859,58.981895 
	C15.426902,58.985603 14.796027,58.982891 14.165152,58.980183 
	C13.930619,58.187675 13.696087,57.395164 13.106441,56.109146 
	C12.224161,55.393574 11.696993,55.171516 11.163201,54.852829 
	C11.156577,54.756207 11.115526,54.566898 11.115527,54.566898 
z"/>
<path fill="#9EB5C7" opacity="1.000000" stroke="none" 
	d="
M12.808428,48.273392 
	C12.808429,48.273392 12.402685,48.170208 12.278387,47.846207 
	C12.126824,47.311081 12.099559,47.099960 11.947348,46.574551 
	C11.488222,45.200985 11.154040,44.141708 11.240767,43.054440 
	C12.771103,43.015179 13.880531,43.003902 14.990976,43.360542 
	C14.981269,44.462128 14.970545,45.195801 14.928093,46.155025 
	C14.896363,46.380581 14.867979,46.835247 14.639990,47.051712 
	C13.877478,47.603249 13.342953,47.938320 12.808428,48.273392 
z"/>
<path fill="#C9A770" opacity="1.000000" stroke="none" 
	d="
M9.751533,55.731262 
	C9.153008,56.266582 8.554486,56.801907 7.563414,57.665127 
	C6.757291,58.006424 6.343718,58.019825 5.930144,58.033226 
	C5.928261,56.899700 5.926377,55.766178 6.301068,54.309593 
	C7.114828,53.744926 7.552013,53.503319 7.989200,53.261715 
	C7.989200,53.261715 8.415854,53.195076 8.712353,53.443550 
	C9.170642,53.992863 9.422296,54.143063 9.763813,54.142624 
	C9.763813,54.142624 9.819852,54.176487 9.729776,54.449978 
	C9.676978,55.059399 9.714255,55.395332 9.751533,55.731262 
z"/>
<path fill="#4D5056" opacity="1.000000" stroke="none" 
	d="
M12.680313,48.597954 
	C13.342953,47.938320 13.877478,47.603249 14.984021,47.119587 
	C16.020435,47.001713 16.484829,47.032433 16.992556,47.357571 
	C17.375767,48.104435 17.715645,48.556885 18.037863,49.256477 
	C18.020201,49.503620 18.000038,49.998760 17.651417,50.010159 
	C16.511690,50.356277 15.720583,50.690994 14.929476,51.025711 
	C14.475130,51.003483 14.020784,50.981251 13.223659,50.951370 
	C12.771319,50.269989 12.661759,49.596252 12.680313,48.597954 
z"/>
<path fill="#686768" opacity="1.000000" stroke="none" 
	d="
M14.098767,59.359390 
	C14.796027,58.982891 15.426902,58.985603 16.489904,59.353497 
	C16.896914,60.492947 16.871796,61.267208 16.846680,62.041473 
	C16.166769,62.028595 15.486859,62.015713 14.468888,62.020676 
	C14.098013,61.271881 14.065198,60.505241 14.098767,59.359390 
z"/>
<path fill="#B48F4E" opacity="1.000000" stroke="none" 
	d="
M6.827209,49.701973 
	C6.422108,49.788620 6.017007,49.875263 5.194869,49.728119 
	C4.587053,49.250019 4.344155,49.080299 4.032797,48.738903 
	C4.016455,48.492638 4.000495,47.999279 4.000563,47.750053 
	C4.000630,47.500828 4.000793,47.002377 4.000793,47.002377 
	C4.000793,47.002377 4.025482,46.993217 4.356984,46.996185 
	C5.114137,46.974133 5.539787,46.949112 5.993794,46.939678 
	C6.022151,46.955265 6.070849,46.997887 6.129116,47.237453 
	C6.345795,47.806870 6.607657,47.982914 6.983387,48.009506 
	C6.993804,48.013859 6.979142,48.031895 6.918613,48.228386 
	C6.858084,48.424877 6.833101,48.835327 6.809912,49.051842 
	C6.786723,49.268356 6.827209,49.701973 6.827209,49.701973 
z"/>
<path fill="#4D5056" opacity="1.000000" stroke="none" 
	d="
M12.072292,46.888832 
	C12.099559,47.099960 12.126824,47.311081 12.069658,47.830368 
	C11.623729,48.543488 11.262231,48.948441 10.486585,49.218384 
	C10.072436,49.083374 9.854271,48.854397 9.873143,48.623348 
	C9.892015,48.392300 9.869716,47.925812 10.092587,47.710011 
	C10.901069,47.292419 11.486680,47.090626 12.072292,46.888832 
z"/>
<path fill="#A69777" opacity="1.000000" stroke="none" 
	d="
M4.000495,47.999279 
	C4.000495,47.999279 4.016455,48.492638 4.031088,49.034332 
	C4.058146,49.772541 4.070571,49.969059 4.082996,50.165573 
	C3.896053,50.432003 3.709110,50.698437 3.283523,51.040821 
	C3.029920,50.336582 3.014962,49.556393 3.250125,48.387985 
	C3.666997,47.999611 3.833746,47.999443 4.000495,47.999279 
z"/>
<path fill="#4D5056" opacity="1.000000" stroke="none" 
	d="
M7.179126,49.778397 
	C6.827209,49.701973 6.786723,49.268356 7.191278,49.090023 
	C8.348646,48.892593 9.101459,48.873497 9.854271,48.854397 
	C9.854271,48.854397 10.072436,49.083374 10.182337,49.201241 
	C9.371839,49.497681 8.451441,49.676254 7.179126,49.778397 
z"/>
<path fill="#B09568" opacity="1.000000" stroke="none" 
	d="
M7.688579,53.154961 
	C7.552013,53.503319 7.114828,53.744926 6.417705,54.005623 
	C6.567830,53.699207 6.977894,53.373703 7.688579,53.154961 
z"/>
<path fill="#686461" opacity="1.000000" stroke="none" 
	d="
M10.037361,55.900177 
	C9.714255,55.395332 9.676978,55.059399 9.719271,54.480988 
	C10.029959,54.244659 10.261074,54.250816 10.803858,54.411934 
	C11.115526,54.566898 11.156577,54.756207 11.098696,55.133732 
	C11.022892,55.702015 11.004971,55.892773 10.987049,56.083530 
	C10.765761,56.078716 10.544475,56.073902 10.037361,55.900177 
z"/>
<path fill="#6C6B6F" opacity="1.000000" stroke="none" 
	d="
M11.324636,56.144154 
	C11.004971,55.892773 11.022892,55.702015 11.105320,55.230354 
	C11.696993,55.171516 12.224161,55.393574 12.891199,55.879852 
	C12.574787,56.164307 12.118505,56.184540 11.324636,56.144154 
z"/>
<path fill="#B09568" opacity="1.000000" stroke="none" 
	d="
M6.031685,58.331551 
	C6.343718,58.019825 6.757291,58.006424 7.480594,57.980152 
	C7.237957,58.188145 6.685592,58.409012 6.031685,58.331551 
z"/>
<path fill="#686461" opacity="1.000000" stroke="none" 
	d="
M9.783245,53.864471 
	C9.422296,54.143063 9.170642,53.992863 8.925537,53.477776 
	C9.162374,53.371128 9.482526,53.478725 9.783245,53.864471 
z"/>
<path fill="#AB9160" opacity="1.000000" stroke="none" 
	d="
M4.315447,50.113113 
	C4.070571,49.969059 4.058146,49.772541 4.047430,49.280598 
	C4.344155,49.080299 4.587053,49.250019 4.885425,49.692329 
	C4.993017,49.890327 4.547897,50.060650 4.315447,50.113113 
z"/>
<path fill="#848484" opacity="1.000000" stroke="none" 
	d="
M58.693020,61.641430 
	C57.305164,61.002033 55.511532,60.275566 55.311340,59.240818 
	C54.972061,57.487148 55.416901,55.461887 56.021336,53.720604 
	C56.196369,53.216358 58.041946,53.291985 59.121696,53.101784 
	C59.425964,54.832077 59.911911,56.556740 59.965801,58.294796 
	C59.997715,59.324173 59.347393,60.374702 58.693020,61.641430 
z"/>
<path fill="#DFAF41" opacity="1.000000" stroke="none" 
	d="
M52.159550,49.073662 
	C51.806328,49.503021 51.453106,49.932384 51.004700,50.630577 
	C50.909515,50.899406 50.926327,50.821507 50.611847,50.678894 
	C49.195122,50.381184 48.092876,50.226082 46.971058,49.745487 
	C47.025078,48.774384 47.098663,48.128777 47.488708,47.443459 
	C48.210487,47.275665 48.615814,47.147583 49.417648,47.018265 
	C50.605892,47.019371 51.397621,47.021713 52.157242,47.367447 
	C52.136604,48.165115 52.148079,48.619389 52.159550,49.073662 
z"/>
<path fill="#1C1919" opacity="1.000000" stroke="none" 
	d="
M52.490875,49.096497 
	C52.148079,48.619389 52.136604,48.165115 52.446327,47.223618 
	C53.489792,46.268929 54.212063,45.801456 55.125088,45.341824 
	C55.571499,45.292030 55.830212,45.270149 56.078278,45.618092 
	C56.033211,46.822865 56.001835,47.693565 55.875664,48.710609 
	C55.780869,48.856953 55.477814,49.029488 55.477814,49.029488 
	C54.592609,49.059437 53.707401,49.089382 52.490875,49.096497 
z"/>
<path fill="#4E4B4B" opacity="1.000000" stroke="none" 
	d="
M52.324696,51.970627 
	C52.008026,52.000557 51.579868,52.057526 51.298378,51.758270 
	C50.986694,51.246513 50.956509,51.034012 50.926327,50.821507 
	C50.926327,50.821507 50.909515,50.899406 50.870701,50.888702 
	C51.663956,51.044331 52.496025,51.210663 53.328094,51.376995 
	C53.099182,51.564896 52.870274,51.752796 52.324696,51.970627 
z"/>
<path fill="#4E4E4E" opacity="1.000000" stroke="none" 
	d="
M57.030121,49.041687 
	C57.030121,49.041687 57.199150,49.294861 57.207127,49.446266 
	C56.784927,49.578365 56.354748,49.559055 55.701195,49.284615 
	C55.477814,49.029488 55.780869,48.856953 56.140808,48.831799 
	C56.677204,48.884991 56.853661,48.963337 57.030121,49.041687 
z"/>
<path fill="#000000" opacity="1.000000" stroke="none" 
	d="
M50.611847,50.678894 
	C50.956509,51.034012 50.986694,51.246513 51.083000,51.774166 
	C50.574223,55.892460 49.999329,59.695606 49.242599,64.701691 
	C46.214649,63.849144 43.227455,62.789188 40.149162,62.237736 
	C38.704693,61.978973 37.094196,62.817848 35.541489,62.943245 
	C34.061722,63.062756 32.559258,62.901245 31.338127,62.381649 
	C31.852728,61.624729 32.095970,61.349438 32.647484,60.880905 
	C33.352634,58.803997 33.749512,56.920326 34.427834,54.864403 
	C35.165825,53.463070 35.622375,52.233990 36.310089,50.890381 
	C36.779701,50.526142 37.018154,50.276432 37.570633,50.026352 
	C38.512512,50.035660 39.140369,50.045341 39.855743,50.273010 
	C39.943268,50.490997 40.016792,50.953800 40.051628,51.280159 
	C40.728275,52.071510 41.370090,52.536499 42.055359,53.360615 
	C42.456268,54.818966 42.813728,55.918194 43.127151,57.262993 
	C43.247581,57.834614 43.511280,58.017803 43.922867,58.327866 
	C44.145016,58.930466 44.318516,59.263340 44.492012,59.596214 
	C44.672451,59.410393 44.852890,59.224571 45.359955,58.886738 
	C45.907078,56.896347 46.127579,55.057964 46.482384,52.923332 
	C46.672935,52.198582 46.729183,51.770088 46.862175,51.028049 
	C46.956154,50.499996 46.973389,50.285488 46.990627,50.070980 
	C48.092876,50.226082 49.195122,50.381184 50.611847,50.678894 
z"/>
<path fill="#010101" opacity="1.000000" stroke="none" 
	d="
M16.928776,62.411049 
	C16.871796,61.267208 16.896914,60.492947 16.806984,59.347084 
	C16.132946,56.578613 15.573953,54.181747 14.972218,51.405296 
	C15.720583,50.690994 16.511690,50.356277 17.887928,50.317257 
	C18.889107,51.661854 19.305155,52.710747 20.043167,54.571342 
	C20.923208,52.458485 21.443779,51.208660 22.329943,49.965149 
	C23.426500,49.991806 24.157469,50.012142 24.936165,50.384781 
	C25.480915,52.301170 25.977936,53.865257 26.575119,55.744545 
	C26.994230,55.027657 27.279137,54.540321 27.726019,53.727497 
	C27.882641,52.922939 27.877291,52.443871 27.888401,51.636391 
	C27.938709,50.871864 27.972557,50.435757 28.421232,50.005825 
	C29.665754,50.017246 30.495445,50.022484 31.268894,50.442215 
	C31.182558,52.246590 31.152468,53.636471 31.002506,55.379761 
	C30.593964,57.169044 30.305290,58.604919 30.006365,60.364510 
	C29.984547,61.119076 29.972980,61.549931 29.961416,61.980782 
	C27.584965,64.173027 25.345261,65.105751 24.446611,62.780628 
	C21.415409,62.780628 19.213142,62.780628 16.928776,62.411049 
z"/>
<path fill="#EECA76" opacity="1.000000" stroke="none" 
	d="
M30.246296,61.994392 
	C29.972980,61.549931 29.984547,61.119076 30.377213,60.191284 
	C31.285282,60.154282 31.812250,60.614216 32.339218,61.074150 
	C32.095970,61.349438 31.852728,61.624729 31.352114,61.998070 
	C30.906887,62.066750 30.719032,62.037376 30.246296,61.994392 
z"/>
<path fill="#0C0B10" opacity="1.000000" stroke="none" 
	d="
M57.185173,48.754295 
	C56.853661,48.963337 56.677204,48.884991 56.235607,48.685455 
	C56.001835,47.693565 56.033211,46.822865 55.941902,45.260189 
	C54.879292,44.379768 53.939358,44.191326 53.005844,43.946915 
	C53.012264,43.890945 53.062763,43.790226 53.036633,43.437248 
	C53.010303,41.061535 53.010105,39.038799 53.014717,36.697899 
	C53.023064,35.957073 53.026604,35.534412 53.273357,35.085037 
	C53.516571,35.058327 54.002953,35.004505 54.444740,35.003838 
	C57.227974,35.020302 59.569412,35.037430 61.910854,35.054558 
	C62.411083,35.631969 62.911312,36.209385 63.656960,36.938744 
	C63.854874,37.993355 63.807365,38.896015 63.797546,40.136639 
	C63.373665,41.793209 62.912090,43.111820 62.244598,44.713814 
	C60.472527,46.153767 58.906376,47.310333 57.185173,48.754295 
z"/>
<path fill="#151A25" opacity="1.000000" stroke="none" 
	d="
M61.918770,34.729797 
	C59.569412,35.037430 57.227974,35.020302 54.513073,34.626114 
	C54.758400,31.791157 55.622795,29.362555 55.920483,26.866369 
	C56.171577,24.760914 55.999916,22.757164 58.980537,22.980600 
	C58.989750,23.716928 58.998962,24.453257 59.004528,25.555580 
	C58.691101,26.726580 58.381321,27.531586 58.044640,29.032707 
	C59.008652,30.488638 59.999557,31.248457 60.990463,32.008278 
	C61.302536,32.807198 61.614609,33.606113 61.918770,34.729797 
z"/>
<path fill="#202733" opacity="1.000000" stroke="none" 
	d="
M60.987328,31.636581 
	C59.999557,31.248457 59.008652,30.488638 58.020836,29.355389 
	C59.010685,29.742933 59.997440,30.503910 60.987328,31.636581 
z"/>
<path fill="#AB9160" opacity="1.000000" stroke="none" 
	d="
M4.000563,47.750053 
	C3.833746,47.999443 3.666997,47.999611 3.251140,47.999439 
	C3.002032,47.999104 3.001021,47.499550 3.000686,47.250443 
	C3.000351,47.001339 3.500175,47.000259 3.750484,47.001320 
	C4.000793,47.002377 4.000630,47.500828 4.000563,47.750053 
z"/>
<path fill="#1D1D22" opacity="1.000000" stroke="none" 
	d="
M2.294213,40.632217 
	C2.090383,39.435913 2.043902,38.534775 2.339323,37.298447 
	C3.475974,36.640121 4.270724,36.316986 5.343504,36.011650 
	C6.079494,36.302860 6.537455,36.576271 7.124083,37.138786 
	C7.821776,37.646530 8.390800,37.865177 8.923572,38.396866 
	C8.267076,39.152679 7.646833,39.595448 6.850433,40.110474 
	C6.604980,40.287670 6.453940,40.451538 6.480018,40.487705 
	C6.620218,40.682159 6.804461,40.844852 6.965506,41.292381 
	C6.930937,41.927944 6.904361,42.289631 6.581079,42.712555 
	C5.882332,42.809875 5.480291,42.845963 5.078250,42.882050 
	C4.202688,42.230495 3.327125,41.578941 2.294213,40.632217 
z"/>
<path fill="#71808D" opacity="1.000000" stroke="none" 
	d="
M11.947348,46.574547 
	C11.486680,47.090626 10.901069,47.292419 9.733311,47.719513 
	C8.427158,47.973839 7.703150,48.002865 6.979142,48.031895 
	C6.979142,48.031895 6.993804,48.013859 6.916931,47.778538 
	C6.652021,47.265007 6.395618,47.083229 6.070849,46.997887 
	C6.070849,46.997887 6.022151,46.955265 5.903145,46.716644 
	C5.581874,46.212322 5.323711,46.022655 5.009649,45.909027 
	C5.009649,45.909027 5.023878,45.435944 5.403155,45.210163 
	C6.911700,44.433983 10.371174,46.467136 8.689440,42.372528 
	C9.430864,42.080368 9.954618,41.974445 10.578123,42.167957 
	C10.725203,42.672405 10.772532,42.877419 10.819859,43.082428 
	C11.154040,44.141708 11.488222,45.200985 11.947348,46.574547 
z"/>
<path fill="#596876" opacity="1.000000" stroke="none" 
	d="
M8.471769,42.558769 
	C10.371174,46.467136 6.911700,44.433983 5.411394,44.973660 
	C5.028608,44.500359 5.016861,44.037785 5.041682,43.228630 
	C5.480291,42.845963 5.882332,42.809875 6.849158,42.785774 
	C7.766551,42.718098 8.119161,42.638435 8.471769,42.558769 
z"/>
<path fill="#A69777" opacity="1.000000" stroke="none" 
	d="
M4.797472,46.039444 
	C5.323711,46.022655 5.581874,46.212322 5.874788,46.701057 
	C5.539787,46.949112 5.114137,46.974133 4.369421,46.991829 
	C4.126409,46.645844 4.304722,46.374294 4.797472,46.039444 
z"/>
<path fill="#1E1D24" opacity="1.000000" stroke="none" 
	d="
M6.995414,36.849682 
	C6.537455,36.576271 6.079494,36.302860 5.074874,35.917908 
	C4.035827,35.531036 3.543440,35.255711 3.051053,34.980389 
	C4.118729,34.650612 5.186404,34.320835 6.989491,33.991447 
	C8.478985,33.997494 9.233067,34.003151 9.988172,34.343636 
	C9.659950,35.445045 9.330708,36.211628 8.666320,36.970306 
	C7.885922,36.924831 7.440668,36.887257 6.995414,36.849682 
z"/>
<path fill="#23262F" opacity="1.000000" stroke="none" 
	d="
M9.987149,34.008812 
	C9.233067,34.003151 8.478985,33.997494 7.347109,33.983368 
	C6.979288,33.528316 6.989260,33.081726 7.003344,32.299217 
	C7.779236,31.641666 8.551016,31.320040 9.661852,31.372814 
	C9.996322,32.501080 9.991735,33.254948 9.987149,34.008812 
z"/>
<path fill="#30343D" opacity="1.000000" stroke="none" 
	d="
M2.822712,35.090027 
	C3.543440,35.255711 4.035827,35.531036 4.796844,35.900105 
	C4.270724,36.316986 3.475974,36.640121 2.336950,36.954338 
	C1.992677,36.945419 1.999838,36.473381 2.000357,36.237354 
	C2.198708,35.734108 2.396540,35.466885 2.822712,35.090027 
z"/>
<path fill="#2F3946" opacity="1.000000" stroke="none" 
	d="
M25.999699,19.006603 
	C30.364237,18.672665 34.728775,18.338728 39.502907,18.364986 
	C39.612057,20.816729 39.311615,22.908274 39.017601,25.254488 
	C39.041183,25.678122 39.058338,25.847084 38.921906,26.306557 
	C38.187473,27.727476 37.606632,28.857883 36.894661,30.250187 
	C36.173122,30.995514 35.582710,31.478951 34.993408,31.632294 
	C34.989857,30.861439 34.985199,30.420677 34.982452,29.736206 
	C34.984360,29.492498 34.995449,29.005192 35.163891,28.915321 
	C35.218494,28.550123 35.104660,28.274794 34.690369,27.871288 
	C33.592075,26.832367 32.794239,25.921618 32.377991,25.006310 
	C33.849491,24.529856 34.939404,24.057961 36.029320,23.586067 
	C35.851837,23.191034 35.674358,22.796003 35.496876,22.400970 
	C34.330536,22.601408 33.164196,22.801846 31.662613,23.001297 
	C30.880600,23.003698 30.433832,23.007084 29.654514,23.008564 
	C28.877756,23.003347 28.433546,23.000031 27.723333,22.806990 
	C26.971453,21.413710 26.485575,20.210157 25.999699,19.006603 
z"/>
<path fill="#242C39" opacity="1.000000" stroke="none" 
	d="
M39.011173,24.999819 
	C39.311615,22.908274 39.612057,20.816729 39.949509,18.367611 
	C40.901443,16.863260 41.816368,15.716482 42.866116,14.284386 
	C43.877274,14.633899 44.753605,15.268727 45.854225,16.448753 
	C46.076469,18.309814 46.074421,19.625679 46.057171,21.263084 
	C46.050243,22.013145 46.058521,22.441662 45.775108,23.035778 
	C44.985573,24.133492 44.487728,25.065605 43.730629,26.099808 
	C42.983688,26.466015 42.495998,26.730133 41.993828,26.749611 
	C41.979347,26.504971 41.951500,26.015627 41.933777,25.708740 
	C40.947758,25.267841 39.979465,25.133831 39.011173,24.999819 
z"/>
<path fill="#2F3A47" opacity="1.000000" stroke="none" 
	d="
M25.613237,18.997734 
	C26.485575,20.210157 26.971453,21.413710 27.713831,23.036793 
	C27.970333,23.456322 27.918514,23.913183 27.667059,23.923031 
	C27.247335,23.940397 27.079069,23.947916 26.668377,23.843224 
	C25.952263,23.487675 25.478571,23.244339 24.657341,22.850073 
	C21.542757,22.132509 18.775715,21.565878 15.987377,20.700518 
	C15.648913,19.929369 15.331741,19.456951 15.007800,18.639709 
	C14.968488,17.834780 14.935945,17.374674 14.903402,16.914568 
	C14.903402,16.914568 14.876905,16.549587 15.173334,16.190540 
	C15.976978,14.892548 16.484194,13.953601 16.991411,13.014655 
	C17.435640,13.012429 17.879869,13.010204 18.656477,13.030596 
	C19.384169,16.801514 21.432619,18.812492 25.613237,18.997734 
z"/>
<path fill="#43515D" opacity="1.000000" stroke="none" 
	d="
M16.776726,12.771814 
	C16.484194,13.953601 15.976978,14.892548 15.174198,16.007572 
	C14.378206,15.871657 13.877779,15.559665 13.106489,14.840239 
	C12.779202,14.246288 12.722776,14.059772 12.666350,13.873257 
	C13.964913,13.425162 15.263476,12.977067 16.776726,12.771814 
z"/>
<path fill="#26242B" opacity="1.000000" stroke="none" 
	d="
M12.510498,13.897982 
	C12.722776,14.059772 12.779202,14.246288 12.835725,14.724980 
	C12.555017,14.885344 12.337463,14.684873 12.114259,14.200630 
	C12.045354,13.985516 12.354645,13.922707 12.510498,13.897982 
z"/>
<path fill="#202530" opacity="1.000000" stroke="none" 
	d="
M58.946686,22.636173 
	C55.999916,22.757164 56.171577,24.760914 55.920483,26.866369 
	C55.622795,29.362555 54.758400,31.791157 54.071281,34.626778 
	C54.002953,35.004505 53.516571,35.058327 53.260109,34.811157 
	C53.002777,34.382050 53.001907,34.200111 52.994473,33.631214 
	C52.654758,31.493629 52.321613,29.743004 52.001266,27.668726 
	C52.028839,26.913452 52.043610,26.481833 52.382366,25.988371 
	C52.503071,24.598272 52.299789,23.270014 52.088547,21.673031 
	C52.066925,21.225599 52.053261,21.046892 52.040115,20.581909 
	C52.029938,19.912659 52.019234,19.529682 52.029297,18.870174 
	C52.034786,18.409405 52.019520,18.225163 52.007301,18.028511 
	C52.010357,18.016100 52.035824,18.018284 52.341019,18.180668 
	C53.757557,18.561201 54.868900,18.779350 55.980244,18.997501 
	C56.957775,20.095583 57.935303,21.193663 58.946686,22.636173 
z"/>
<path fill="#3B3F48" opacity="1.000000" stroke="none" 
	d="
M49.761440,12.317337 
	C50.388397,11.725232 50.879322,11.422173 51.665031,11.098530 
	C52.028297,12.102128 52.096775,13.126311 51.905731,14.660882 
	C51.398655,15.479849 51.151100,15.788427 50.541679,16.074116 
	C49.452160,16.034594 48.724499,16.017963 47.996841,16.001333 
	C48.539696,14.869682 49.082550,13.738031 49.761440,12.317337 
z"/>
<path fill="#2F3037" opacity="1.000000" stroke="none" 
	d="
M50.903545,16.097006 
	C51.151100,15.788427 51.398655,15.479849 51.925556,15.047088 
	C53.127193,15.360898 54.049480,15.798890 54.693478,16.601812 
	C53.622063,17.317255 52.828941,17.667768 52.035824,18.018284 
	C52.035824,18.018284 52.010357,18.016100 51.799843,17.996796 
	C51.589329,17.977493 51.172504,17.928864 51.129551,17.622818 
	C51.025581,16.910183 50.964565,16.503593 50.903545,16.097006 
z"/>
<path fill="#3B3E47" opacity="1.000000" stroke="none" 
	d="
M52.341019,18.180668 
	C52.828941,17.667768 53.622063,17.317255 54.766315,16.932648 
	C55.403389,17.397930 55.689331,17.897306 55.977760,18.697090 
	C54.868900,18.779350 53.757557,18.561201 52.341019,18.180668 
z"/>
<path fill="#5A575D" opacity="1.000000" stroke="none" 
	d="
M50.541679,16.074116 
	C50.964565,16.503593 51.025581,16.910183 51.095955,17.912224 
	C51.131634,18.699505 51.157955,18.891331 51.157021,19.400322 
	C51.127785,20.141378 51.125805,20.565269 50.701191,20.992174 
	C48.876492,20.977306 47.474434,20.959423 46.072372,20.941542 
	C46.074421,19.625679 46.076469,18.309814 46.138618,16.610445 
	C46.596798,16.167543 46.994865,16.108150 47.694889,16.025043 
	C48.724499,16.017963 49.452160,16.034594 50.541679,16.074116 
z"/>
<path fill="#2B323E" opacity="1.000000" stroke="none" 
	d="
M16.008671,20.999245 
	C18.775715,21.565878 21.542757,22.132509 24.621103,23.205774 
	C23.612757,26.441999 22.293108,29.171593 20.611736,31.932751 
	C19.160831,32.292549 18.071651,32.620781 16.681454,32.983467 
	C15.921857,33.361603 15.463278,33.705284 14.731966,34.255463 
	C14.340564,34.894073 14.221895,35.326183 13.873933,35.927574 
	C13.505059,37.080044 13.365480,38.063232 12.966059,39.245209 
	C11.963601,40.252174 11.220986,41.060349 10.478373,41.868526 
	C9.954618,41.974445 9.430864,42.080368 8.689440,42.372528 
	C8.119161,42.638435 7.766551,42.718098 7.145864,42.724541 
	C6.904361,42.289631 6.930937,41.927944 6.979878,41.047279 
	C7.002245,40.528301 7.026588,40.038216 7.026589,40.038216 
	C7.646833,39.595448 8.267076,39.152679 8.938663,38.120144 
	C8.993826,37.346325 8.997644,37.162266 9.001463,36.978210 
	C9.330708,36.211628 9.659950,35.445045 9.988172,34.343636 
	C9.991735,33.254948 9.996322,32.501080 9.997412,31.370243 
	C10.271028,30.518965 10.548141,30.044659 11.289375,29.260447 
	C12.832223,27.301409 13.910950,25.652279 14.994411,23.663727 
	C15.335653,22.549284 15.672162,21.774265 16.008671,20.999245 
z"/>
<path fill="#1D1E26" opacity="1.000000" stroke="none" 
	d="
M14.989677,24.003149 
	C13.910950,25.652279 12.832223,27.301409 11.406822,29.010777 
	C11.041213,28.612879 11.022276,28.154741 11.124893,27.056656 
	C11.500431,25.612572 11.754413,24.808434 12.381073,24.002644 
	C13.499062,24.001711 14.244370,24.002430 14.989677,24.003149 
z"/>
<path fill="#2C2E35" opacity="1.000000" stroke="none" 
	d="
M12.008393,24.004295 
	C11.754413,24.808434 11.500431,25.612572 11.122992,26.713371 
	C10.418941,26.846878 9.838348,26.683718 9.061017,26.281115 
	C9.679920,25.049154 10.495564,24.056639 11.656210,23.283684 
	C12.003606,23.670259 12.005999,23.837276 12.008393,24.004295 
z"/>
<path fill="#23232B" opacity="1.000000" stroke="none" 
	d="
M12.381073,24.002644 
	C12.005999,23.837276 12.003606,23.670259 12.000269,23.252720 
	C12.000279,22.280283 12.001234,21.558367 12.103023,20.238440 
	C12.460850,19.425436 12.717843,19.210447 13.314839,18.998611 
	C14.108086,18.996023 14.561328,18.990278 15.014570,18.984531 
	C15.331741,19.456951 15.648913,19.929369 15.987377,20.700516 
	C15.672162,21.774265 15.335653,22.549284 14.994411,23.663727 
	C14.244370,24.002430 13.499062,24.001711 12.381073,24.002644 
z"/>
<path fill="#57342B" opacity="1.000000" stroke="none" 
	d="
M12.974835,18.995457 
	C12.717843,19.210447 12.460850,19.425436 12.104692,19.877522 
	C11.560061,20.086708 11.114594,20.058798 10.334913,20.011738 
	C10.003472,19.258568 10.006246,18.524551 10.025011,17.425282 
	C10.766618,17.041224 11.492232,17.022421 12.588593,17.332726 
	C12.964504,18.106371 12.969670,18.550915 12.974835,18.995457 
z"/>
<path fill="#2C2D35" opacity="1.000000" stroke="none" 
	d="
M13.314839,18.998611 
	C12.969670,18.550915 12.964504,18.106371 12.952080,17.328300 
	C13.381285,16.979622 13.817749,16.964472 14.578808,16.931946 
	C14.935945,17.374674 14.968488,17.834780 15.007800,18.639709 
	C14.561328,18.990278 14.108086,18.996023 13.314839,18.998611 
z"/>
<path fill="#7A838A" opacity="1.000000" stroke="none" 
	d="
M16.949224,47.063148 
	C16.484829,47.032433 16.020435,47.001713 15.212009,46.903122 
	C14.867979,46.835247 14.896363,46.380581 15.276101,46.150452 
	C16.756081,44.605255 17.856323,43.290184 18.960442,41.961731 
	C18.964317,41.948341 18.945061,41.926331 19.251389,41.989426 
	C20.051376,42.634403 20.545034,43.216290 21.007570,44.196140 
	C20.973804,45.388309 20.971157,46.182518 20.567118,46.979256 
	C19.093559,47.008904 18.021391,47.036026 16.949224,47.063148 
z"/>
<path fill="#ABC2D3" opacity="1.000000" stroke="none" 
	d="
M10.578123,42.167957 
	C11.220986,41.060349 11.963601,40.252174 13.286867,39.313808 
	C14.262137,40.134705 14.656755,41.085793 15.040821,42.276127 
	C15.030268,42.515373 14.989960,42.992630 14.989960,42.992630 
	C13.880531,43.003902 12.771103,43.015179 11.240767,43.054440 
	C10.772532,42.877419 10.725203,42.672405 10.578123,42.167957 
z"/>
<path fill="#95A5B2" opacity="1.000000" stroke="none" 
	d="
M14.990976,43.360542 
	C14.989960,42.992630 15.030268,42.515373 15.430515,42.264172 
	C16.872698,42.000351 17.914631,41.987732 18.956566,41.975117 
	C17.856323,43.290184 16.756081,44.605255 15.307831,45.924896 
	C14.970545,45.195801 14.981269,44.462128 14.990976,43.360542 
z"/>
<path fill="#5B6976" opacity="1.000000" stroke="none" 
	d="
M16.992556,47.357567 
	C18.021391,47.036026 19.093559,47.008904 20.981266,46.989918 
	C22.898380,46.986568 23.999952,46.975086 25.339701,46.917759 
	C25.577875,46.871914 26.028671,46.692757 26.051273,47.079170 
	C26.139957,48.236687 26.206039,49.007782 25.929407,49.859779 
	C25.353941,49.971279 25.121187,50.001881 24.888435,50.032478 
	C24.157469,50.012142 23.426500,49.991806 22.088020,49.718239 
	C20.338848,49.313122 19.197186,49.161228 18.055525,49.009331 
	C17.715645,48.556885 17.375767,48.104435 16.992556,47.357567 
z"/>
<path fill="#88939C" opacity="1.000000" stroke="none" 
	d="
M18.037863,49.256477 
	C19.197186,49.161228 20.338848,49.313122 21.722431,49.711926 
	C21.443779,51.208660 20.923208,52.458485 20.043167,54.571342 
	C19.305155,52.710747 18.889107,51.661854 18.236549,50.305859 
	C18.000038,49.998760 18.020201,49.503620 18.037863,49.256477 
z"/>
<path fill="#786548" opacity="1.000000" stroke="none" 
	d="
M6.918613,48.228386 
	C7.703150,48.002865 8.427158,47.973839 9.510441,47.935310 
	C9.869716,47.925812 9.892015,48.392300 9.873143,48.623348 
	C9.101459,48.873497 8.348646,48.892593 7.214467,48.873508 
	C6.833101,48.835327 6.858084,48.424877 6.918613,48.228386 
z"/>
<path fill="#786548" opacity="1.000000" stroke="none" 
	d="
M6.129116,47.237453 
	C6.395618,47.083229 6.652021,47.265007 6.906514,47.774185 
	C6.607657,47.982914 6.345795,47.806870 6.129116,47.237453 
z"/>
<path fill="#100D0E" opacity="1.000000" stroke="none" 
	d="
M39.768223,50.055016 
	C39.140369,50.045341 38.512512,50.035660 37.310699,49.902405 
	C36.503304,49.486038 36.269867,49.193245 36.034134,48.678238 
	C36.031841,48.456017 36.046364,48.009380 36.442070,48.006859 
	C41.705284,48.381184 39.103519,43.609200 41.362076,41.962929 
	C42.829548,41.331841 43.948170,40.684948 45.293121,40.122169 
	C45.944946,40.417099 46.370434,40.627918 47.137913,40.918251 
	C47.377354,43.159565 47.274803,45.321365 47.172253,47.483166 
	C47.098663,48.128777 47.025078,48.774384 46.971058,49.745487 
	C46.973389,50.285488 46.956154,50.499996 46.593803,50.777138 
	C46.132347,50.624306 46.015999,50.408836 45.869167,49.923698 
	C44.558334,49.437958 43.277985,49.221889 41.672493,49.019978 
	C40.820980,49.374432 40.294601,49.714725 39.768223,50.055016 
z"/>
<path fill="#141317" opacity="1.000000" stroke="none" 
	d="
M47.488708,47.443459 
	C47.274803,45.321365 47.377354,43.159565 47.181156,40.567497 
	C46.913929,39.422066 46.945450,38.706905 47.358654,37.954041 
	C49.496857,37.616245 51.253384,37.316154 53.009907,37.016060 
	C53.010105,39.038799 53.010303,41.061535 52.714394,43.537491 
	C51.285904,45.000305 50.153519,46.009903 49.021137,47.019501 
	C48.615814,47.147583 48.210487,47.275665 47.488708,47.443459 
z"/>
<path fill="#A27421" opacity="1.000000" stroke="none" 
	d="
M49.417648,47.018265 
	C50.153519,46.009903 51.285904,45.000305 52.740524,43.890465 
	C53.062763,43.790226 53.012264,43.890945 53.276245,44.232285 
	C54.004929,44.827080 54.469635,45.080536 54.934338,45.333984 
	C54.212063,45.801456 53.489792,46.268929 52.478439,46.880226 
	C51.397621,47.021713 50.605892,47.019371 49.417648,47.018265 
z"/>
<path fill="#765E24" opacity="1.000000" stroke="none" 
	d="
M55.125088,45.341827 
	C54.469635,45.080536 54.004929,44.827080 53.269829,44.288254 
	C53.939358,44.191326 54.879292,44.379768 55.955597,44.926117 
	C55.830212,45.270149 55.571499,45.292030 55.125088,45.341827 
z"/>
<path fill="#28292E" opacity="1.000000" stroke="none" 
	d="
M36.036427,48.900455 
	C36.269867,49.193245 36.503304,49.486038 36.996674,49.902775 
	C37.018154,50.276432 36.779701,50.526142 35.948227,50.882484 
	C34.011848,50.668648 32.668495,50.348186 31.325138,50.027725 
	C30.495445,50.022484 29.665754,50.017246 28.130241,49.978237 
	C27.040323,49.889271 26.656221,49.834076 26.272121,49.778881 
	C26.206039,49.007782 26.139957,48.236687 25.988770,46.971878 
	C25.814676,46.335056 25.706045,46.208843 25.583729,45.839485 
	C25.629055,45.410564 25.668427,45.241684 26.053436,45.063385 
	C27.884327,45.016571 29.369577,44.979168 30.903278,45.249298 
	C31.284693,46.052616 31.617653,46.548409 32.031265,47.399406 
	C33.420090,48.136559 34.728256,48.518505 36.036427,48.900455 
z"/>
<path fill="#4C4949" opacity="1.000000" stroke="none" 
	d="
M31.268894,50.442215 
	C32.668495,50.348186 34.011848,50.668648 35.717064,50.997013 
	C35.622375,52.233990 35.165825,53.463070 34.048454,54.852997 
	C32.632549,55.018017 31.877462,55.022186 31.122377,55.026352 
	C31.152468,53.636471 31.182558,52.246590 31.268894,50.442215 
z"/>
<path fill="#D3A760" opacity="1.000000" stroke="none" 
	d="
M45.899647,50.193367 
	C46.015999,50.408836 46.132347,50.624306 46.517067,51.090683 
	C46.729183,51.770088 46.672935,52.198582 46.284931,53.134922 
	C45.025848,54.767654 44.098518,55.892536 43.171188,57.017418 
	C42.813728,55.918194 42.456268,54.818966 42.231506,53.175842 
	C42.469227,52.498035 42.574245,52.364124 42.780888,52.224129 
	C42.882507,52.218048 43.198387,51.967548 43.414806,51.785393 
	C43.686127,51.422821 43.741028,51.242409 43.956532,51.247055 
	C44.451061,51.504768 44.716343,51.680809 45.035492,51.909168 
	C45.158001,51.858097 45.413551,51.796345 45.413551,51.796345 
	C45.413551,51.796345 45.669559,51.855888 45.744347,51.442650 
	C45.845970,50.750725 45.872810,50.472046 45.899647,50.193367 
z"/>
<path fill="#5C5756" opacity="1.000000" stroke="none" 
	d="
M31.002506,55.379761 
	C31.877462,55.022186 32.632549,55.018017 33.767014,55.025253 
	C33.749512,56.920326 33.352634,58.803997 32.647484,60.880909 
	C31.812250,60.614216 31.285282,60.154282 30.387466,59.867573 
	C30.305290,58.604919 30.593964,57.169044 31.002506,55.379761 
z"/>
<path fill="#E7BB6A" opacity="1.000000" stroke="none" 
	d="
M43.127151,57.262993 
	C44.098518,55.892536 45.025848,54.767654 46.150627,53.431175 
	C46.127579,55.057964 45.907078,56.896347 45.230957,58.655258 
	C44.474960,58.403236 44.174587,58.230690 43.874218,58.058140 
	C43.511280,58.017803 43.247581,57.834614 43.127151,57.262993 
z"/>
<path fill="#010101" opacity="1.000000" stroke="none" 
	d="
M42.679268,52.230209 
	C42.574245,52.364124 42.469227,52.498035 42.188057,52.816719 
	C41.370090,52.536499 40.728275,52.071510 40.378754,51.306618 
	C41.108448,51.025517 41.545853,51.044315 41.988964,51.047798 
	C41.994667,51.032482 42.022850,51.031162 42.151184,51.350506 
	C42.412762,51.856632 42.546013,52.043419 42.679268,52.230209 
z"/>
<path fill="#333131" opacity="1.000000" stroke="none" 
	d="
M41.983261,51.063118 
	C41.545853,51.044315 41.108448,51.025517 40.343918,50.980255 
	C40.016792,50.953800 39.943268,50.490997 39.855743,50.273006 
	C40.294601,49.714725 40.820980,49.374432 41.674301,49.362579 
	C41.995251,50.148384 41.989254,50.605747 41.983261,51.063118 
z"/>
<path fill="#D3A760" opacity="1.000000" stroke="none" 
	d="
M43.922867,58.327866 
	C44.174587,58.230690 44.474960,58.403236 44.904327,58.807266 
	C44.852890,59.224571 44.672451,59.410393 44.492012,59.596214 
	C44.318516,59.263340 44.145016,58.930466 43.922867,58.327866 
z"/>
<path fill="#747A80" opacity="1.000000" stroke="none" 
	d="
M25.929407,49.859779 
	C26.656221,49.834076 27.040323,49.889271 27.715412,49.972057 
	C27.972557,50.435757 27.938709,50.871864 27.708485,51.801701 
	C27.529421,52.881279 27.546732,53.467133 27.564043,54.052986 
	C27.279137,54.540321 26.994230,55.027657 26.575119,55.744545 
	C25.977936,53.865257 25.480915,52.301170 24.936165,50.384781 
	C25.121187,50.001881 25.353941,49.971279 25.929407,49.859779 
z"/>
<path fill="#4E4E4E" opacity="1.000000" stroke="none" 
	d="
M27.726017,53.727497 
	C27.546732,53.467133 27.529421,52.881279 27.692024,52.130112 
	C27.877291,52.443871 27.882641,52.922939 27.726017,53.727497 
z"/>
<path fill="#181B25" opacity="1.000000" stroke="none" 
	d="
M53.014717,36.697899 
	C51.253384,37.316154 49.496857,37.616245 47.357655,37.580215 
	C46.984150,36.496063 46.993320,35.748032 47.343246,35.001534 
	C48.138393,34.981834 48.592785,34.960606 49.371056,34.949512 
	C50.126602,34.977959 50.558270,34.996265 51.080765,35.184509 
	C51.450409,35.240345 51.729218,35.126236 52.113335,34.792480 
	C52.414894,34.296902 52.675694,34.112015 53.001041,34.018173 
	C53.001907,34.200111 53.002777,34.382050 53.016895,34.837872 
	C53.026604,35.534412 53.023064,35.957073 53.014717,36.697899 
z"/>
<path fill="#30343D" opacity="1.000000" stroke="none" 
	d="
M8.666319,36.970306 
	C8.997644,37.162266 8.993826,37.346325 8.974916,37.807098 
	C8.390800,37.865177 7.821776,37.646530 7.124083,37.138786 
	C7.440668,36.887257 7.885922,36.924831 8.666319,36.970306 
z"/>
<path fill="#252933" opacity="1.000000" stroke="none" 
	d="
M6.850432,40.110474 
	C7.026588,40.038216 7.002245,40.528301 6.987872,40.773407 
	C6.804461,40.844852 6.620218,40.682159 6.480018,40.487705 
	C6.453940,40.451538 6.604980,40.287670 6.850432,40.110474 
z"/>
<path fill="#404853" opacity="1.000000" stroke="none" 
	d="
M20.973461,31.901184 
	C22.293108,29.171593 23.612757,26.441999 24.968643,23.356705 
	C25.478571,23.244339 25.952263,23.487675 26.718243,24.147648 
	C27.338198,25.047106 27.665865,25.529922 28.195450,26.266220 
	C29.282307,26.014311 30.167244,25.508921 31.289158,25.002209 
	C31.526138,25.000889 32.000103,25.000051 31.999741,25.000324 
	C31.999378,25.000599 31.996403,25.010868 31.996403,25.010868 
	C32.794239,25.921618 33.592075,26.832367 34.691307,28.122730 
	C34.993622,28.669964 34.994537,28.837578 34.995449,29.005192 
	C34.995449,29.005192 34.984360,29.492498 34.645256,29.774456 
	C32.865543,31.028660 31.424934,32.000904 29.977345,33.232803 
	C29.961283,33.665142 29.952196,33.837833 29.686283,34.002014 
	C29.258638,33.980450 29.087824,33.967396 28.881931,33.646339 
	C28.238567,32.900097 27.630281,32.461861 27.014795,31.716209 
	C26.902641,30.877613 26.797688,30.346426 26.692734,29.815241 
	C26.513975,29.821266 26.335217,29.827293 26.156458,29.833321 
	C26.103243,30.556881 26.050028,31.280441 25.580294,32.003410 
	C23.775263,32.005863 22.386749,32.008911 20.993301,31.983982 
	C20.988365,31.956007 20.973459,31.901184 20.973461,31.901184 
z"/>
<path fill="#0F0F15" opacity="1.000000" stroke="none" 
	d="
M41.951500,26.015627 
	C41.951500,26.015627 41.979347,26.504971 41.987198,27.124100 
	C41.999554,28.491854 42.004063,29.240477 42.003891,30.238995 
	C41.999207,30.488886 41.992996,30.988722 41.980873,31.228296 
	C41.968754,31.467871 41.947182,31.947144 41.625362,31.960011 
	C40.873280,31.990858 40.443020,32.008842 39.847557,31.776417 
	C39.124348,31.349569 38.566341,31.173130 37.901970,30.778236 
	C37.599804,30.287392 37.343193,30.096893 37.025787,29.988293 
	C37.606632,28.857883 38.187473,27.727476 39.280594,26.300961 
	C40.512417,26.008442 41.231956,26.012033 41.951500,26.015627 
z"/>
<path fill="#212229" opacity="1.000000" stroke="none" 
	d="
M36.894661,30.250185 
	C37.343193,30.096893 37.599804,30.287392 37.751381,31.115540 
	C37.484329,33.111465 37.261505,34.551632 36.686081,35.971577 
	C35.213161,35.626526 34.092842,35.301701 32.977921,34.730595 
	C32.983318,34.484318 32.986370,33.991657 33.231270,33.837303 
	C33.981544,33.109432 34.486919,32.535908 34.992298,31.962387 
	C35.582710,31.478951 36.173122,30.995514 36.894661,30.250185 
z"/>
<path fill="#353E4A" opacity="1.000000" stroke="none" 
	d="
M34.993408,31.632294 
	C34.486919,32.535908 33.981544,33.109432 32.911747,33.814442 
	C31.559660,33.621674 30.771992,33.297413 29.984324,32.973152 
	C31.424934,32.000904 32.865543,31.028660 34.643349,30.018166 
	C34.985199,30.420677 34.989857,30.861439 34.993408,31.632294 
z"/>
<path fill="#353E4A" opacity="1.000000" stroke="none" 
	d="
M31.997858,23.002283 
	C33.164196,22.801846 34.330536,22.601408 35.496876,22.400970 
	C35.674358,22.796003 35.851837,23.191034 36.029320,23.586067 
	C34.939404,24.057961 33.849491,24.529856 32.377991,25.006310 
	C31.996403,25.010868 31.999378,25.000599 31.999689,24.667128 
	C31.999287,23.889866 31.998573,23.446074 31.997858,23.002283 
z"/>
<path fill="#12151D" opacity="1.000000" stroke="none" 
	d="
M41.933777,25.708740 
	C41.231956,26.012033 40.512417,26.008442 39.434181,26.010448 
	C39.058338,25.847084 39.041183,25.678122 39.017601,25.254488 
	C39.979465,25.133831 40.947758,25.267841 41.933777,25.708740 
z"/>
<path fill="#36292D" opacity="1.000000" stroke="none" 
	d="
M31.662613,23.001297 
	C31.998573,23.446074 31.999287,23.889866 32.000053,24.666855 
	C32.000103,25.000051 31.526138,25.000889 31.178173,24.788649 
	C30.643106,24.302477 30.392792,24.111366 30.049049,23.755592 
	C30.018837,23.508106 29.987064,23.010469 29.987064,23.010468 
	C30.433832,23.007084 30.880600,23.003698 31.662613,23.001297 
z"/>
<path fill="#685958" opacity="1.000000" stroke="none" 
	d="
M29.654514,23.008566 
	C29.987064,23.010469 30.018837,23.508106 29.706291,23.764681 
	C28.938557,24.023617 28.483372,24.025980 28.000523,23.999784 
	C27.972862,23.971228 27.918514,23.913183 27.918514,23.913183 
	C27.918514,23.913183 27.970333,23.456322 27.979836,23.226519 
	C28.433546,23.000031 28.877756,23.003347 29.654514,23.008566 
z"/>
<path fill="#2E323A" opacity="1.000000" stroke="none" 
	d="
M35.163891,28.915321 
	C34.994537,28.837578 34.993622,28.669964 34.991764,28.250906 
	C35.104660,28.274794 35.218494,28.550123 35.163891,28.915321 
z"/>
<path fill="#3D434E" opacity="1.000000" stroke="none" 
	d="
M46.057167,21.263084 
	C47.474434,20.959423 48.876492,20.977306 50.930115,20.967485 
	C51.581673,20.939781 52.039597,20.868183 52.039597,20.868183 
	C52.053261,21.046892 52.066925,21.225599 51.945267,21.962742 
	C51.892761,23.697521 51.975571,24.873867 52.058380,26.050213 
	C52.043610,26.481833 52.028839,26.913452 51.602093,27.671360 
	C50.124138,27.997635 49.058151,27.997620 48.008739,27.628998 
	C47.372475,25.796989 46.719635,24.333584 46.066795,22.870178 
	C46.058521,22.441662 46.050243,22.013145 46.057167,21.263084 
z"/>
<path fill="#101119" opacity="1.000000" stroke="none" 
	d="
M45.775108,23.035780 
	C46.719635,24.333584 47.372475,25.796989 47.610023,27.619251 
	C46.131317,28.001837 45.067894,28.025570 44.007252,27.707359 
	C44.003315,26.909515 43.996597,26.453615 43.989880,25.997717 
	C44.487728,25.065605 44.985573,24.133492 45.775108,23.035780 
z"/>
<path fill="#1D2531" opacity="1.000000" stroke="none" 
	d="
M43.730629,26.099808 
	C43.996597,26.453615 44.003315,26.909515 44.047897,28.045521 
	C44.393566,29.817463 44.701370,30.909298 44.626732,32.000549 
	C43.478588,31.982361 42.712887,31.964752 41.947182,31.947144 
	C41.947182,31.947144 41.968754,31.467871 42.153683,31.145237 
	C42.404335,30.714264 42.550308,30.544310 42.522346,30.507895 
	C42.375301,30.316374 42.184307,30.158596 42.008572,29.989101 
	C42.004063,29.240477 41.999554,28.491854 42.001678,27.368740 
	C42.495998,26.730133 42.983688,26.466015 43.730629,26.099808 
z"/>
<path fill="#685958" opacity="1.000000" stroke="none" 
	d="
M27.993530,26.012741 
	C27.665865,25.529922 27.338198,25.047106 26.960667,24.259861 
	C27.079069,23.947916 27.247335,23.940397 27.667059,23.923031 
	C27.918514,23.913183 27.972862,23.971228 27.995798,24.330036 
	C28.010334,25.130144 28.001932,25.571444 27.993530,26.012741 
z"/>
<path fill="#303946" opacity="1.000000" stroke="none" 
	d="
M45.009174,32.001133 
	C44.701370,30.909298 44.393566,29.817463 44.045120,28.387465 
	C45.067894,28.025570 46.131317,28.001837 47.593452,27.987854 
	C49.058151,27.997620 50.124138,27.997635 51.589294,27.995014 
	C52.321613,29.743004 52.654758,31.493629 52.994473,33.631214 
	C52.675694,34.112015 52.414894,34.296902 51.858772,34.789413 
	C51.329243,35.008850 51.159588,35.011707 50.989933,35.014568 
	C50.558270,34.996265 50.126602,34.977959 49.338455,34.662041 
	C48.670292,33.905682 48.358612,33.446930 47.834648,32.722748 
	C46.745705,32.300316 45.869038,32.143314 44.994644,31.992031 
	C44.996910,31.997747 45.009174,32.001133 45.009174,32.001133 
z"/>
<path fill="#343943" opacity="1.000000" stroke="none" 
	d="
M52.382366,25.988371 
	C51.975571,24.873867 51.892761,23.697521 51.953232,22.231466 
	C52.299789,23.270014 52.503071,24.598272 52.382366,25.988371 
z"/>
<path fill="#2F3037" opacity="1.000000" stroke="none" 
	d="
M52.040115,20.581909 
	C52.039597,20.868183 51.581673,20.939781 51.352753,20.964470 
	C51.125805,20.565269 51.127785,20.141378 51.363251,19.400318 
	C51.596745,19.083147 52.008530,19.146706 52.008530,19.146706 
	C52.019234,19.529682 52.029938,19.912659 52.040115,20.581909 
z"/>
<path fill="#3B3E47" opacity="1.000000" stroke="none" 
	d="
M52.029293,18.870174 
	C52.008530,19.146706 51.596745,19.083147 51.390511,19.083151 
	C51.157955,18.891331 51.131634,18.699505 51.138908,18.218271 
	C51.172504,17.928864 51.589329,17.977493 51.796791,18.009209 
	C52.019520,18.225163 52.034786,18.409405 52.029293,18.870174 
z"/>
<path fill="#4B5F72" opacity="1.000000" stroke="none" 
	d="
M15.004698,34.048965 
	C15.463278,33.705284 15.921857,33.361603 16.908260,33.266926 
	C18.624132,33.677189 19.812180,33.838444 21.039619,34.365265 
	C21.394459,36.365356 21.709909,37.999874 21.632299,39.737495 
	C20.161921,39.885712 19.084604,39.930824 17.898560,39.645630 
	C16.882713,38.117924 15.975593,36.920521 15.051852,35.445084 
	C15.025055,34.794353 15.014876,34.421658 15.004698,34.048965 
z"/>
<path fill="#9DB3C2" opacity="1.000000" stroke="none" 
	d="
M15.068472,35.723122 
	C15.975593,36.920521 16.882713,38.117924 17.988558,39.903358 
	C18.439875,40.969704 18.692467,41.448017 18.945061,41.926331 
	C18.945061,41.926331 18.964317,41.948341 18.960442,41.961731 
	C17.914631,41.987732 16.872698,42.000351 15.441069,42.024925 
	C14.656755,41.085793 14.262137,40.134705 13.546711,39.115021 
	C13.365480,38.063232 13.505059,37.080044 14.021476,36.023987 
	C14.657479,35.980816 14.880865,35.904819 15.068472,35.723122 
z"/>
<path fill="#465767" opacity="1.000000" stroke="none" 
	d="
M21.000229,33.999695 
	C19.812180,33.838444 18.624132,33.677189 17.209278,33.232475 
	C18.071651,32.620781 19.160831,32.292549 20.611736,31.932751 
	C20.973459,31.901184 20.988365,31.956007 20.993986,32.315109 
	C20.999815,33.116039 21.000023,33.557869 21.000229,33.999695 
z"/>
<path fill="#666F7B" opacity="1.000000" stroke="none" 
	d="
M15.051853,35.445084 
	C14.880865,35.904819 14.657479,35.980816 14.250771,35.854706 
	C14.221895,35.326183 14.340564,34.894073 14.731965,34.255463 
	C15.014876,34.421658 15.025055,34.794353 15.051853,35.445084 
z"/>
<path fill="#9CABB6" opacity="1.000000" stroke="none" 
	d="
M19.251389,41.989426 
	C18.692467,41.448017 18.439875,40.969704 18.097282,40.233665 
	C19.084604,39.930824 20.161921,39.885712 22.015556,39.892319 
	C23.871931,39.900650 24.951990,39.857269 26.241930,40.031242 
	C26.605652,40.817532 26.759495,41.386459 26.647924,42.111160 
	C25.980846,42.971828 25.579182,43.676727 24.969032,44.363194 
	C24.760548,44.344761 24.453753,44.629536 24.031773,44.507408 
	C22.752758,44.189575 21.895725,43.993877 21.038691,43.798180 
	C20.545034,43.216290 20.051376,42.634403 19.251389,41.989426 
z"/>
<path fill="#666F7B" opacity="1.000000" stroke="none" 
	d="
M21.007570,44.196140 
	C21.895725,43.993877 22.752758,44.189575 24.132866,44.567101 
	C24.655939,44.748928 24.911049,44.793907 24.911049,44.793907 
	C24.911049,44.793907 25.162981,44.731644 25.285873,44.838192 
	C25.408764,44.944740 25.707796,45.072800 25.707796,45.072800 
	C25.668427,45.241684 25.629055,45.410564 25.415182,46.029110 
	C25.194294,46.640385 25.147911,46.801991 25.101526,46.963600 
	C23.999952,46.975086 22.898380,46.986568 21.382658,46.987389 
	C20.971157,46.182518 20.973804,45.388309 21.007570,44.196140 
z"/>
<path fill="#2F353F" opacity="1.000000" stroke="none" 
	d="
M25.339701,46.917755 
	C25.147911,46.801991 25.194294,46.640385 25.409225,46.289154 
	C25.706045,46.208843 25.814676,46.335056 25.966167,46.585464 
	C26.028671,46.692757 25.577875,46.871914 25.339701,46.917755 
z"/>
<path fill="#0F0F13" opacity="1.000000" stroke="none" 
	d="
M31.950611,47.044205 
	C31.617653,46.548409 31.284693,46.052616 31.118895,45.003872 
	C32.521614,43.634418 33.757172,42.817921 35.326569,42.027367 
	C36.436172,41.688385 37.595348,41.520622 37.906006,40.916515 
	C38.509064,39.743809 38.635406,38.325958 38.968746,37.010708 
	C38.978233,37.011742 38.980553,36.993671 38.989063,37.332428 
	C39.324398,38.451359 39.651226,39.231529 40.084732,40.266090 
	C40.465351,40.996029 40.739288,41.471573 41.013222,41.947121 
	C39.103519,43.609200 41.705284,48.381184 36.198158,47.734604 
	C34.355896,47.324646 33.153255,47.184425 31.950611,47.044205 
z"/>
<path fill="#313E4D" opacity="1.000000" stroke="none" 
	d="
M39.978054,40.011703 
	C39.651226,39.231529 39.324398,38.451359 39.219193,37.323364 
	C39.440815,36.975544 39.899235,36.934994 40.271111,36.950695 
	C42.087749,36.319920 43.532513,35.673443 45.314812,35.023674 
	C46.102394,35.013588 46.552444,35.006794 47.002491,35.000000 
	C46.993320,35.748032 46.984150,36.496063 46.975975,37.617920 
	C46.945450,38.706905 46.913929,39.422066 46.839165,40.487984 
	C46.370434,40.627918 45.944946,40.417099 44.867523,40.107803 
	C42.803078,40.010120 41.390564,40.010914 39.978054,40.011703 
z"/>
<path fill="#1A1718" opacity="1.000000" stroke="none" 
	d="
M41.988964,51.047798 
	C41.989254,50.605747 41.995251,50.148384 41.999439,49.348419 
	C43.277985,49.221889 44.558334,49.437958 45.869167,49.923698 
	C45.872810,50.472046 45.845970,50.750725 45.514961,51.160324 
	C45.000320,51.170345 44.789856,51.049458 44.387627,50.985992 
	C44.195858,51.043423 43.795929,51.061996 43.795929,51.061996 
	C43.741028,51.242409 43.686127,51.422821 43.166977,51.490406 
	C42.476101,51.262104 42.249474,51.146633 42.022850,51.031162 
	C42.022850,51.031162 41.994667,51.032482 41.988964,51.047798 
z"/>
<path fill="#1A1718" opacity="1.000000" stroke="none" 
	d="
M32.031265,47.399406 
	C33.153255,47.184425 34.355896,47.324646 35.802452,47.737125 
	C36.046364,48.009380 36.031841,48.456017 36.034134,48.678238 
	C34.728256,48.518505 33.420090,48.136559 32.031265,47.399406 
z"/>
<path fill="#2B3644" opacity="1.000000" stroke="none" 
	d="
M40.084732,40.266090 
	C41.390564,40.010914 42.803078,40.010120 44.641190,40.023697 
	C43.948170,40.684948 42.829548,41.331841 41.362076,41.962929 
	C40.739288,41.471573 40.465351,40.996029 40.084732,40.266090 
z"/>
<path fill="#2F353F" opacity="1.000000" stroke="none" 
	d="
M34.992729,42.001419 
	C33.757172,42.817921 32.521614,43.634418 31.070442,44.696342 
	C29.369577,44.979168 27.884327,45.016571 26.053436,45.063385 
	C25.707796,45.072800 25.408764,44.944740 25.297110,44.752705 
	C25.185455,44.560669 25.177515,44.381626 25.177517,44.381626 
	C25.579182,43.676727 25.980846,42.971828 27.021229,42.137974 
	C28.406693,42.006470 29.153442,42.003918 30.327881,42.004612 
	C32.167953,42.005711 33.580341,42.003567 34.992729,42.001419 
z"/>
<path fill="#745E37" opacity="1.000000" stroke="none" 
	d="
M42.151184,51.350506 
	C42.249474,51.146633 42.476101,51.262104 42.950562,51.672562 
	C43.198387,51.967548 42.882507,52.218048 42.780888,52.224129 
	C42.546013,52.043419 42.412762,51.856632 42.151184,51.350506 
z"/>
<path fill="#E7BB6A" opacity="1.000000" stroke="none" 
	d="
M44.579395,50.928566 
	C44.789856,51.049458 45.000320,51.170345 45.440170,51.573563 
	C45.669559,51.855888 45.413551,51.796345 45.413551,51.796345 
	C45.413551,51.796345 45.158001,51.858097 44.977608,51.643089 
	C44.724609,51.261578 44.652000,51.095074 44.579395,50.928566 
z"/>
<path fill="#100D0E" opacity="1.000000" stroke="none" 
	d="
M44.387627,50.985992 
	C44.652000,51.095074 44.724609,51.261578 44.855095,51.694160 
	C44.716343,51.680809 44.451061,51.504768 43.956532,51.247055 
	C43.795929,51.061996 44.195858,51.043423 44.387627,50.985992 
z"/>
<path fill="#222936" opacity="1.000000" stroke="none" 
	d="
M47.343246,35.001534 
	C46.552444,35.006794 46.102394,35.013588 45.316513,34.772690 
	C44.981068,34.357929 44.981464,34.190861 45.307022,33.991867 
	C46.437099,33.636021 47.242016,33.312099 48.046932,32.988182 
	C48.358612,33.446930 48.670292,33.905682 49.014572,34.651901 
	C48.592785,34.960606 48.138393,34.981834 47.343246,35.001534 
z"/>
<path fill="#222936" opacity="1.000000" stroke="none" 
	d="
M51.080765,35.184509 
	C51.159588,35.011707 51.329243,35.008850 51.753460,35.009064 
	C51.729218,35.126236 51.450409,35.240345 51.080765,35.184509 
z"/>
<path fill="#485767" opacity="1.000000" stroke="none" 
	d="
M26.032049,39.813889 
	C24.951990,39.857269 23.871931,39.900650 22.408615,39.789215 
	C21.709909,37.999874 21.394459,36.365356 21.039619,34.365265 
	C21.000023,33.557869 20.999815,33.116039 20.998922,32.343086 
	C22.386749,32.008911 23.775263,32.005863 25.836567,32.010452 
	C26.680237,32.019928 26.851116,32.021774 27.021996,32.023621 
	C27.630281,32.461861 28.238567,32.900097 28.537476,33.719986 
	C27.496082,36.005718 26.764067,37.909805 26.032049,39.813889 
z"/>
<path fill="#414B58" opacity="1.000000" stroke="none" 
	d="
M26.241930,40.031242 
	C26.764067,37.909805 27.496082,36.005718 28.572552,34.027988 
	C29.087824,33.967396 29.258638,33.980450 29.700836,34.320854 
	C29.965317,35.073936 29.958414,35.499664 29.925779,36.361614 
	C29.900097,38.532349 29.900145,40.266857 29.900192,42.001369 
	C29.153442,42.003918 28.406693,42.006470 27.286640,41.982204 
	C26.759495,41.386459 26.605652,40.817532 26.241930,40.031242 
z"/>
<path fill="#614840" opacity="1.000000" stroke="none" 
	d="
M28.195450,26.266220 
	C28.001932,25.571444 28.010334,25.130144 28.023460,24.358593 
	C28.483372,24.025980 28.938557,24.023617 29.736504,24.012167 
	C30.392792,24.111366 30.643106,24.302477 30.941193,24.789970 
	C30.167244,25.508921 29.282307,26.014311 28.195450,26.266220 
z"/>
<path fill="#2F363F" opacity="1.000000" stroke="none" 
	d="
M29.951511,35.925392 
	C29.958414,35.499664 29.965317,35.073936 29.957666,34.329365 
	C29.952196,33.837833 29.961283,33.665142 29.977345,33.232803 
	C30.771992,33.297413 31.559660,33.621674 32.666847,33.968796 
	C32.986370,33.991657 32.983318,34.484318 32.683285,34.860703 
	C31.572672,35.466526 30.762093,35.695961 29.951511,35.925392 
z"/>
<path fill="#353E4A" opacity="1.000000" stroke="none" 
	d="
M27.014795,31.716209 
	C26.851116,32.021774 26.680237,32.019928 26.253086,32.011040 
	C26.050028,31.280441 26.103243,30.556881 26.156458,29.833321 
	C26.335217,29.827293 26.513975,29.821266 26.692734,29.815241 
	C26.797688,30.346426 26.902641,30.877613 27.014795,31.716209 
z"/>
<path fill="#293644" opacity="1.000000" stroke="none" 
	d="
M44.981857,34.023792 
	C44.981464,34.190861 44.981068,34.357929 44.978973,34.775982 
	C43.532513,35.673443 42.087749,36.319920 40.288986,36.543468 
	C39.960911,34.755970 39.986835,33.391396 40.012756,32.026825 
	C40.443020,32.008842 40.873280,31.990858 41.625362,31.960009 
	C42.712887,31.964752 43.478588,31.982361 44.626732,32.000549 
	C45.009174,32.001133 44.996910,31.997747 44.988857,32.331566 
	C44.981155,33.118187 44.981506,33.570992 44.981857,34.023792 
z"/>
<path fill="#15151B" opacity="1.000000" stroke="none" 
	d="
M39.847557,31.776417 
	C39.986835,33.391396 39.960911,34.755970 39.917110,36.527767 
	C39.899235,36.934994 39.440815,36.975544 39.210686,36.984608 
	C38.980553,36.993671 38.978233,37.011742 38.967247,36.747601 
	C38.317070,36.319572 37.677876,36.155685 37.038681,35.991802 
	C37.261505,34.551632 37.484329,33.111465 37.857742,31.333994 
	C38.566341,31.173130 39.124348,31.349569 39.847557,31.776417 
z"/>
<path fill="#12151D" opacity="1.000000" stroke="none" 
	d="
M42.003891,30.238995 
	C42.184307,30.158596 42.375301,30.316374 42.522346,30.507895 
	C42.550308,30.544310 42.404335,30.714264 42.165802,30.905663 
	C41.992996,30.988722 41.999207,30.488886 42.003891,30.238995 
z"/>
<path fill="#16151C" opacity="1.000000" stroke="none" 
	d="
M36.686081,35.971577 
	C37.677876,36.155685 38.317070,36.319572 38.957764,36.746567 
	C38.635406,38.325958 38.509064,39.743809 37.906006,40.916515 
	C37.595348,41.520622 36.436172,41.688385 35.326569,42.027367 
	C33.580341,42.003567 32.167953,42.005711 30.327881,42.004612 
	C29.900145,40.266857 29.900097,38.532349 29.925779,36.361614 
	C30.762093,35.695961 31.572672,35.466526 32.677887,35.106979 
	C34.092842,35.301701 35.213161,35.626526 36.686081,35.971577 
z"/>
<path fill="#1A1E28" opacity="1.000000" stroke="none" 
	d="
M45.307022,33.991867 
	C44.981506,33.570992 44.981155,33.118187 44.986588,32.325851 
	C45.869038,32.143314 46.745705,32.300316 47.834648,32.722748 
	C47.242016,33.312099 46.437099,33.636021 45.307022,33.991867 
z"/>
<path fill="#4A5865" opacity="1.000000" stroke="none" 
	d="
M24.969032,44.363194 
	C25.177515,44.381626 25.185455,44.560669 25.174217,44.646156 
	C25.162981,44.731644 24.911049,44.793907 24.911049,44.793907 
	C24.911049,44.793907 24.655939,44.748928 24.554846,44.689232 
	C24.453753,44.629536 24.760548,44.344761 24.969032,44.363194 
z"/>
</svg>