<?xml version="1.0" encoding="UTF-8"?>
<svg version="1.1" xmlns="http://www.w3.org/2000/svg" width="64" height="64">
<path d="M0 0 C21.12 0 42.24 0 64 0 C64 21.12 64 42.24 64 64 C42.88 64 21.76 64 0 64 C0 42.88 0 21.76 0 0 Z " fill="#24272F" transform="translate(0,0)"/>
<path d="M0 0 C1.65 0 3.3 0 5 0 C4.67 0.66 4.34 1.32 4 2 C3.34 2 2.68 2 2 2 C2.66 4.31 3.32 6.62 4 9 C5.32 9.33 6.64 9.66 8 10 C7.67 10.99 7.34 11.98 7 13 C6.79600955 15.64904265 6.62823688 18.2848963 6.5 20.9375 C6.03837723 30.434961 6.03837723 30.434961 5 33 C4.01 33.66 3.02 34.32 2 35 C1.74969023 37.58380177 1.74969023 37.58380177 2 40 C4.3015411 40.77802187 4.3015411 40.77802187 7 41 C10.12056696 39.26635169 10.85331791 38.44004627 12 35 C13.32 35 14.64 35 16 35 C16.33 36.65 16.66 38.3 17 40 C21.455 39.505 21.455 39.505 26 39 C25.67 41.97 25.34 44.94 25 48 C25.66 48 26.32 48 27 48 C26.67 50.97 26.34 53.94 26 57 C24 53 24 53 24 49 C23.01 49 22.02 49 21 49 C20.67 50.98 20.34 52.96 20 55 C19.34 55 18.68 55 18 55 C18 53.02 18 51.04 18 49 C16.68 49 15.36 49 14 49 C14.2165625 49.75925781 14.433125 50.51851562 14.65625 51.30078125 C14.9346875 52.29464844 15.213125 53.28851563 15.5 54.3125 C15.91765625 55.79169922 15.91765625 55.79169922 16.34375 57.30078125 C17 60 17 60 17 63 C18.32 63 19.64 63 21 63 C21 61.02 21 59.04 21 57 C21.99 56.505 21.99 56.505 23 56 C23.33 58.31 23.66 60.62 24 63 C25.32 63 26.64 63 28 63 C28.33 61.35 28.66 59.7 29 58 C29.99 58 30.98 58 32 58 C31.67 59.65 31.34 61.3 31 63 C32.32 63 33.64 63 35 63 C35 62.01 35 61.02 35 60 C36.65 60 38.3 60 40 60 C40 60.99 40 61.98 40 63 C41.32 63 42.64 63 44 63 C43.484375 61.948125 42.96875 60.89625 42.4375 59.8125 C41.00311817 56.51476233 40.83547893 54.4935632 42 51 C43.32 51 44.64 51 46 51 C46 54.96 46 58.92 46 63 C46.99 63 47.98 63 49 63 C49 58.38 49 53.76 49 49 C48.01 49 47.02 49 46 49 C46.1875 47.1875 46.1875 47.1875 47 45 C49.375 43.1875 49.375 43.1875 52 42 C52.99 42.33 53.98 42.66 55 43 C55 43.66 55 44.32 55 45 C54.01 45 53.02 45 52 45 C52 45.99 52 46.98 52 48 C54.94818931 47.51973152 54.94818931 47.51973152 58 46 C61.88607385 40.10821062 61.0158792 34.76844814 60 28 C59.34 28 58.68 28 58 28 C57.505 26.02 57.505 26.02 57 24 C58.32 24 59.64 24 61 24 C60.505 20.535 60.505 20.535 60 17 C57.525 16.01 57.525 16.01 55 15 C55 15.99 55 16.98 55 18 C54.34 18 53.68 18 53 18 C53.020625 19.175625 53.04125 20.35125 53.0625 21.5625 C53.06947261 25.47413467 52.64250343 29.14497944 52 33 C50.68 33 49.36 33 48 33 C48 32.01 48 31.02 48 30 C46.68 29.67 45.36 29.34 44 29 C45.32 28.67 46.64 28.34 48 28 C48 26.35 48 24.7 48 23 C47.34 23 46.68 23 46 23 C46 22.34 46 21.68 46 21 C44.68 20.67 43.36 20.34 42 20 C42.3125 18.0625 42.3125 18.0625 43 16 C43.99 15.67 44.98 15.34 46 15 C47.20882096 12.99983534 47.20882096 12.99983534 48 11 C49.32 11 50.64 11 52 11 C52.33 10.01 52.66 9.02 53 8 C51.44539063 8.12568359 51.44539063 8.12568359 49.859375 8.25390625 C48.48960868 8.35710782 47.11981553 8.45995374 45.75 8.5625 C45.06808594 8.61857422 44.38617188 8.67464844 43.68359375 8.73242188 C40.2579419 8.98186254 37.27298823 9.13879745 34 8 C34 7.34 34 6.68 34 6 C28.555 5.505 28.555 5.505 23 5 C22.34 3.35 21.68 1.7 21 0 C35.19 0 49.38 0 64 0 C64 21.12 64 42.24 64 64 C42.88 64 21.76 64 0 64 C0 42.88 0 21.76 0 0 Z " fill="#827A6D" transform="translate(0,0)"/>
<path d="M0 0 C0.73283203 -0.00773438 1.46566406 -0.01546875 2.22070312 -0.0234375 C7.68413018 -0.00336982 7.68413018 -0.00336982 9.9375 2.25 C9.9375 3.24 9.9375 4.23 9.9375 5.25 C10.56398438 5.23839844 11.19046875 5.22679687 11.8359375 5.21484375 C12.65320313 5.20582031 13.47046875 5.19679688 14.3125 5.1875 C15.12460937 5.17589844 15.93671875 5.16429687 16.7734375 5.15234375 C18.9375 5.25 18.9375 5.25 20.9375 6.25 C20.9375 6.91 20.9375 7.57 20.9375 8.25 C23.2475 8.58 25.5575 8.91 27.9375 9.25 C27.42978528 15.21564796 25.55157872 19.88809899 22.9375 25.25 C22.2775 25.25 21.6175 25.25 20.9375 25.25 C21.4325 27.725 21.4325 27.725 21.9375 30.25 C20.968125 30.95125 19.99875 31.6525 19 32.375 C16.38592775 34.52161462 15.97491594 35.10835394 15.0625 38.5625 C15.02125 39.449375 14.98 40.33625 14.9375 41.25 C14.2775 41.25 13.6175 41.25 12.9375 41.25 C12.9375 40.59 12.9375 39.93 12.9375 39.25 C8.4825 39.745 8.4825 39.745 3.9375 40.25 C3.6075 38.6 3.2775 36.95 2.9375 35.25 C1.6175 35.25 0.2975 35.25 -1.0625 35.25 C-1.145 35.848125 -1.2275 36.44625 -1.3125 37.0625 C-2.30485279 39.95686231 -3.37174205 40.82987775 -6.0625 42.25 C-10.47275641 41.83974359 -10.47275641 41.83974359 -12.0625 40.25 C-12.3125 37.875 -12.3125 37.875 -12.0625 35.25 C-10.625 33.625 -10.625 33.625 -9.0625 32.25 C-7.84233215 28.58949645 -7.74597796 25.06905972 -7.5625 21.25 C-7.19763514 13.65540541 -7.19763514 13.65540541 -6.0625 10.25 C-7.0525 9.92 -8.0425 9.59 -9.0625 9.25 C-11.0625 6.25 -11.0625 6.25 -11.0625 2.25 C-7.31236585 -0.25008943 -4.33738094 -0.04601996 0 0 Z " fill="#2D3541" transform="translate(13.0625,-0.25)"/>
<path d="M0 0 C1.65 0 3.3 0 5 0 C4.67 0.66 4.34 1.32 4 2 C3.34 2 2.68 2 2 2 C2.66 4.31 3.32 6.62 4 9 C5.32 9.33 6.64 9.66 8 10 C7.67 10.99 7.34 11.98 7 13 C6.79600955 15.64904265 6.62823688 18.2848963 6.5 20.9375 C6.03837723 30.434961 6.03837723 30.434961 5 33 C4.01 33.66 3.02 34.32 2 35 C1.74969023 37.58380177 1.74969023 37.58380177 2 40 C4.3015411 40.77802187 4.3015411 40.77802187 7 41 C10.12056696 39.26635169 10.85331791 38.44004627 12 35 C13.32 35 14.64 35 16 35 C16.33 36.65 16.66 38.3 17 40 C21.455 39.505 21.455 39.505 26 39 C25.67 41.97 25.34 44.94 25 48 C25.66 48 26.32 48 27 48 C26.67 50.97 26.34 53.94 26 57 C24 53 24 53 24 49 C23.01 49 22.02 49 21 49 C20.67 50.98 20.34 52.96 20 55 C19.34 55 18.68 55 18 55 C18 53.02 18 51.04 18 49 C16.68 49 15.36 49 14 49 C14.2165625 49.75925781 14.433125 50.51851562 14.65625 51.30078125 C14.9346875 52.29464844 15.213125 53.28851563 15.5 54.3125 C15.91765625 55.79169922 15.91765625 55.79169922 16.34375 57.30078125 C17 60 17 60 17 63 C18.32 63 19.64 63 21 63 C21 61.02 21 59.04 21 57 C21.99 56.505 21.99 56.505 23 56 C23.33 58.31 23.66 60.62 24 63 C25.32 63 26.64 63 28 63 C28.33 61.35 28.66 59.7 29 58 C29.99 58 30.98 58 32 58 C31.67 59.65 31.34 61.3 31 63 C32.32 63 33.64 63 35 63 C35 62.01 35 61.02 35 60 C36.65 60 38.3 60 40 60 C40 60.99 40 61.98 40 63 C41.32 63 42.64 63 44 63 C43.67 62.278125 43.34 61.55625 43 60.8125 C41.99396471 57.98302573 41.83022598 55.97104534 42 53 C42.99 52.67 43.98 52.34 45 52 C45 55.96 45 59.92 45 64 C30.15 64 15.3 64 0 64 C0 42.88 0 21.76 0 0 Z " fill="#6F7C87" transform="translate(0,0)"/>
<path d="M0 0 C1.98 0.66 3.96 1.32 6 2 C6 4.31 6 6.62 6 9 C4.68 9 3.36 9 2 9 C2.33 10.32 2.66 11.64 3 13 C3.66 13 4.32 13 5 13 C7.51219672 19.05882738 6.96040675 23.27042293 4.8125 29.375 C3 32 3 32 -0.1875 32.875 C-1.115625 32.91625 -2.04375 32.9575 -3 33 C-3 32.01 -3 31.02 -3 30 C-2.01 30 -1.02 30 0 30 C-0.33 29.34 -0.66 28.68 -1 28 C-3.7970612 29.1018726 -6.4528893 30.23550244 -9.125 31.625 C-13.89034417 33.72766849 -18.8976902 33.2491182 -24 33 C-24.66 31.68 -25.32 30.36 -26 29 C-22.18599807 27.2097542 -19.54753166 26.04640099 -15.3125 25.6875 C-11.71239366 25.30860004 -11.71239366 25.30860004 -9.5625 21.9375 C-9.046875 20.968125 -8.53125 19.99875 -8 19 C-6.35 19.33 -4.7 19.66 -3 20 C-3.01160156 19.443125 -3.02320312 18.88625 -3.03515625 18.3125 C-3.09676433 13.10221657 -2.74999344 8.1562049 -2 3 C-1.34 3 -0.68 3 0 3 C0 2.01 0 1.02 0 0 Z " fill="#111014" transform="translate(55,15)"/>
<path d="M0 0 C14.19 0 28.38 0 43 0 C43 6.6 43 13.2 43 20 C42.34 20 41.68 20 41 20 C40.938125 19.443125 40.87625 18.88625 40.8125 18.3125 C39.67380969 15.0716122 37.43109548 13.3687597 35 11 C35 10.34 35 9.68 35 9 C33.74703125 9.01160156 32.4940625 9.02320313 31.203125 9.03515625 C29.55208483 9.04453716 27.90104304 9.05363704 26.25 9.0625 C25.425 9.07087891 24.6 9.07925781 23.75 9.08789062 C22.55117188 9.09272461 22.55117188 9.09272461 21.328125 9.09765625 C20.5949707 9.10289307 19.86181641 9.10812988 19.10644531 9.11352539 C16.9538151 8.9975109 15.0685865 8.59073271 13 8 C13 7.34 13 6.68 13 6 C9.37 5.67 5.74 5.34 2 5 C1.34 3.35 0.68 1.7 0 0 Z " fill="#F8F8F8" transform="translate(21,0)"/>
<path d="M0 0 C0.99 0 1.98 0 3 0 C6 3.33333333 6 3.33333333 6 6 C6.99 6.33 7.98 6.66 9 7 C9 8.32 9 9.64 9 11 C9.66 11 10.32 11 11 11 C11.05807043 14.10408807 11.09361914 17.2080364 11.125 20.3125 C11.15013672 21.63411133 11.15013672 21.63411133 11.17578125 22.98242188 C11.18222656 23.82998047 11.18867187 24.67753906 11.1953125 25.55078125 C11.20578613 26.33106689 11.21625977 27.11135254 11.22705078 27.9152832 C11 30 11 30 9 33 C8.34 32.67 7.68 32.34 7 32 C7.185625 30.96875 7.37125 29.9375 7.5625 28.875 C7.97307082 25.23851558 7.778309 22.54562991 7 19 C6.34 19 5.68 19 5 19 C4.67 17.68 4.34 16.36 4 15 C5.32 15 6.64 15 8 15 C7.67 12.69 7.34 10.38 7 8 C5.35 7.34 3.7 6.68 2 6 C2 6.99 2 7.98 2 9 C1.34 9 0.68 9 0 9 C0.020625 10.175625 0.04125 11.35125 0.0625 12.5625 C0.06947261 16.47413467 -0.35749657 20.14497944 -1 24 C-2.32 24 -3.64 24 -5 24 C-5 23.01 -5 22.02 -5 21 C-6.32 20.67 -7.64 20.34 -9 20 C-7.68 19.67 -6.36 19.34 -5 19 C-5 17.35 -5 15.7 -5 14 C-5.66 14 -6.32 14 -7 14 C-7 13.34 -7 12.68 -7 12 C-8.32 11.67 -9.64 11.34 -11 11 C-10.6875 9.0625 -10.6875 9.0625 -10 7 C-9.01 6.67 -8.02 6.34 -7 6 C-5.79117904 3.99983534 -5.79117904 3.99983534 -5 2 C-3.68 2 -2.36 2 -1 2 C-0.67 1.34 -0.34 0.68 0 0 Z " fill="#373D47" transform="translate(53,9)"/>
<path d="M0 0 C3.11954738 0.33724836 4.6209965 0.6209965 6.875 2.875 C7.24625 3.57625 7.6175 4.2775 8 5 C7.67 5.99 7.34 6.98 7 8 C4.69 7.34 2.38 6.68 0 6 C0 6.99 0 7.98 0 9 C0.66 9 1.32 9 2 9 C2 9.66 2 10.32 2 11 C2.66 11 3.32 11 4 11 C3.67 13.64 3.34 16.28 3 19 C2.34 19 1.68 19 1 19 C1 18.34 1 17.68 1 17 C-1.97 17.33 -4.94 17.66 -8 18 C-8.33 16.35 -8.66 14.7 -9 13 C-10.32 13 -11.64 13 -13 13 C-13.33 14.32 -13.66 15.64 -14 17 C-14.33 17 -14.66 17 -15 17 C-15 14.69 -15 12.38 -15 10 C-13.68 10 -12.36 10 -11 10 C-11 9.34 -11 8.68 -11 8 C-10.278125 8.103125 -9.55625 8.20625 -8.8125 8.3125 C-4.82682804 7.86964756 -3.5172078 6.00666487 -1 3 C-0.67 2.01 -0.34 1.02 0 0 Z " fill="#485766" transform="translate(25,22)"/>
<path d="M0 0 C1.2065625 0.0309375 1.2065625 0.0309375 2.4375 0.0625 C2.4375 1.3825 2.4375 2.7025 2.4375 4.0625 C5.7375 3.7325 9.0375 3.4025 12.4375 3.0625 C12.4375 3.7225 12.4375 4.3825 12.4375 5.0625 C13.20835938 5.12308594 13.97921875 5.18367187 14.7734375 5.24609375 C16.27777344 5.37177734 16.27777344 5.37177734 17.8125 5.5 C19.30910156 5.62181641 19.30910156 5.62181641 20.8359375 5.74609375 C23.4375 6.0625 23.4375 6.0625 25.4375 7.0625 C25.4375 7.7225 25.4375 8.3825 25.4375 9.0625 C26.0975 9.3925 26.7575 9.7225 27.4375 10.0625 C23.52361995 12.67175337 20.48570877 12.10026945 16 11.75 C15.23623047 11.70166016 14.47246094 11.65332031 13.68554688 11.60351562 C10.14470238 11.36006331 6.87178155 10.99642141 3.4375 10.0625 C3.4375 9.0725 3.4375 8.0825 3.4375 7.0625 C2.48875 7.10375 1.54 7.145 0.5625 7.1875 C-2.5625 7.0625 -2.5625 7.0625 -4.5625 5.0625 C-3.80953264 0.09291543 -3.80953264 0.09291543 0 0 Z " fill="#120F14" transform="translate(8.5625,0.9375)"/>
<path d="M0 0 C2.475 0.495 2.475 0.495 5 1 C4.25 5.75 4.25 5.75 2 8 C1.6823754 9.91006306 1.6823754 9.91006306 1.75 12 C1.74484375 12.70125 1.7396875 13.4025 1.734375 14.125 C1.84294485 16.2435669 1.84294485 16.2435669 4 18 C8.16937798 18.23600253 11.94392005 17.98329211 16 17 C16 17.66 16 18.32 16 19 C17.65 19 19.3 19 21 19 C21 17.02 21 15.04 21 13 C21.66 12.67 22.32 12.34 23 12 C23.33 14.31 23.66 16.62 24 19 C25.32 19 26.64 19 28 19 C28.33 17.35 28.66 15.7 29 14 C29.99 14 30.98 14 32 14 C31.67 15.65 31.34 17.3 31 19 C32.32 19 33.64 19 35 19 C35 18.01 35 17.02 35 16 C36.65 16 38.3 16 40 16 C40 16.99 40 17.98 40 19 C41.32 19 42.64 19 44 19 C43.505 17.9171875 43.505 17.9171875 43 16.8125 C41.99396471 13.98302573 41.83022598 11.97104534 42 9 C42.99 8.67 43.98 8.34 45 8 C45 11.96 45 15.92 45 20 C30.15 20 15.3 20 0 20 C0 13.4 0 6.8 0 0 Z " fill="#8F8777" transform="translate(0,44)"/>
<path d="M0 0 C1.134375 0.144375 2.26875 0.28875 3.4375 0.4375 C5.43575961 3.43488941 5.71300398 4.07097508 5.6875 7.4375 C5.69265625 8.118125 5.6978125 8.79875 5.703125 9.5 C5.4375 11.4375 5.4375 11.4375 3.4375 14.4375 C0.04278797 14.80783222 -2.45157484 15.04671702 -5.5 13.375 C-7.18153731 10.30866726 -6.92301184 7.86236249 -6.5625 4.4375 C-4.93837913 0.71157566 -4.08431875 0.501583 0 0 Z " fill="#0A0A0A" transform="translate(57.5625,48.5625)"/>
<path d="M0 0 C1.32 0 2.64 0 4 0 C4 1.98 4 3.96 4 6 C4.66 6 5.32 6 6 6 C6.33 4.02 6.66 2.04 7 0 C7.99 0 8.98 0 10 0 C10.66 1.65 11.32 3.3 12 5 C12.33 3.35 12.66 1.7 13 0 C13.99 0 14.98 0 16 0 C15.85866501 1.77119803 15.71176792 3.54195287 15.5625 5.3125 C15.48128906 6.29863281 15.40007813 7.28476562 15.31640625 8.30078125 C15 11 15 11 14 14 C12.68 14 11.36 14 10 14 C9.34 12.02 8.68 10.04 8 8 C7.67 9.98 7.34 11.96 7 14 C5.68 14 4.36 14 3 14 C2.49713066 12.0424015 1.9977901 10.08389623 1.5 8.125 C1.2215625 7.03445312 0.943125 5.94390625 0.65625 4.8203125 C0 2 0 2 0 0 Z " fill="#060606" transform="translate(14,49)"/>
<path d="M0 0 C1.65 0 3.3 0 5 0 C4.67 0.66 4.34 1.32 4 2 C3.34 2 2.68 2 2 2 C2.66 4.31 3.32 6.62 4 9 C5.32 9.33 6.64 9.66 8 10 C7.34 12.31 6.68 14.62 6 17 C5.34 17 4.68 17 4 17 C4.04640625 17.74765625 4.0928125 18.4953125 4.140625 19.265625 C4.17671875 20.25046875 4.2128125 21.2353125 4.25 22.25 C4.29640625 23.22453125 4.3428125 24.1990625 4.390625 25.203125 C4 28 4 28 0 32 C0 21.44 0 10.88 0 0 Z " fill="#FBFBFB" transform="translate(0,0)"/>
<path d="M0 0 C0.73283203 -0.00773438 1.46566406 -0.01546875 2.22070312 -0.0234375 C7.68413018 -0.00336982 7.68413018 -0.00336982 9.9375 2.25 C9.9375 3.24 9.9375 4.23 9.9375 5.25 C10.56398438 5.23839844 11.19046875 5.22679687 11.8359375 5.21484375 C12.65320313 5.20582031 13.47046875 5.19679688 14.3125 5.1875 C15.12460937 5.17589844 15.93671875 5.16429687 16.7734375 5.15234375 C18.9375 5.25 18.9375 5.25 20.9375 6.25 C20.9375 6.91 20.9375 7.57 20.9375 8.25 C16.6475 7.59 12.3575 6.93 7.9375 6.25 C7.9375 5.59 7.9375 4.93 7.9375 4.25 C6.8546875 4.7759375 6.8546875 4.7759375 5.75 5.3125 C2.6252295 6.35409017 1.05588004 6.14096572 -2.0625 5.25 C-2.0625 3.93 -2.0625 2.61 -2.0625 1.25 C-4.0425 1.91 -6.0225 2.57 -8.0625 3.25 C-7.7325 4.57 -7.4025 5.89 -7.0625 7.25 C-4.0925 7.745 -4.0925 7.745 -1.0625 8.25 C-1.0625 8.91 -1.0625 9.57 -1.0625 10.25 C-1.7225 10.25 -2.3825 10.25 -3.0625 10.25 C-3.165625 10.889375 -3.26875 11.52875 -3.375 12.1875 C-3.601875 12.868125 -3.82875 13.54875 -4.0625 14.25 C-5.0525 14.58 -6.0425 14.91 -7.0625 15.25 C-6.7325 13.6 -6.4025 11.95 -6.0625 10.25 C-7.0525 9.92 -8.0425 9.59 -9.0625 9.25 C-11.0625 6.25 -11.0625 6.25 -11.0625 2.25 C-7.31236585 -0.25008943 -4.33738094 -0.04601996 0 0 Z " fill="#4B4E55" transform="translate(13.0625,-0.25)"/>
<path d="M0 0 C1.98 0.66 3.96 1.32 6 2 C6 4.31 6 6.62 6 9 C4.68 9 3.36 9 2 9 C2.33 10.32 2.66 11.64 3 13 C3.66 13 4.32 13 5 13 C5.33 14.98 5.66 16.96 6 19 C5.01 18.67 4.02 18.34 3 18 C3 17.34 3 16.68 3 16 C1.02 16.66 -0.96 17.32 -3 18 C-2.67 13.05 -2.34 8.1 -2 3 C-1.34 3 -0.68 3 0 3 C0 2.01 0 1.02 0 0 Z " fill="#191E28" transform="translate(55,15)"/>
<path d="M0 0 C0.66 1.32 1.32 2.64 2 4 C1.030625 3.814375 0.06125 3.62875 -0.9375 3.4375 C-1.948125 3.293125 -2.95875 3.14875 -4 3 C-5.35618499 4.12534105 -5.35618499 4.12534105 -5.0625 7.0625 C-5.041875 8.031875 -5.02125 9.00125 -5 10 C-3.68 10.33 -2.36 10.66 -1 11 C-1 10.34 -1 9.68 -1 9 C-1.66 9 -2.32 9 -3 9 C-3 8.01 -3 7.02 -3 6 C-1.02 6 0.96 6 3 6 C3 8.31 3 10.62 3 13 C-0.04983996 14.52491998 -2.6423369 14.23562548 -6 14 C-7.9375 13 -7.9375 13 -9 11 C-9.5327028 7.39862897 -9.68723346 4.22174836 -7.875 1 C-5.21065116 -0.42098605 -2.96508915 -0.19767261 0 0 Z " fill="#0D0D0C" transform="translate(10,49)"/>
<path d="M0 0 C0.66 0 1.32 0 2 0 C2.33 3.63 2.66 7.26 3 11 C2.01 11 1.02 11 0 11 C0.061875 11.7425 0.12375 12.485 0.1875 13.25 C-0.04138386 16.60696324 -0.50353042 17.74512425 -3 20 C-6.6875 20.75 -6.6875 20.75 -10 21 C-10 19.02 -10 17.04 -10 15 C-7.69 15 -5.38 15 -3 15 C-3.19335938 14.44699219 -3.38671875 13.89398438 -3.5859375 13.32421875 C-4.1050548 10.41030562 -3.52797355 8.61668849 -2.625 5.8125 C-2.34914063 4.93207031 -2.07328125 4.05164063 -1.7890625 3.14453125 C-1 1 -1 1 0 0 Z " fill="#15161D" transform="translate(39,20)"/>
<path d="M0 0 C3.63 0 7.26 0 11 0 C11 0.99 11 1.98 11 3 C10.34 3 9.68 3 9 3 C9.22816406 3.75925781 9.45632813 4.51851562 9.69140625 5.30078125 C9.97886719 6.29464844 10.26632812 7.28851563 10.5625 8.3125 C10.85253906 9.29863281 11.14257812 10.28476562 11.44140625 11.30078125 C12 14 12 14 11 17 C11 16.34 11 15.68 11 15 C10.01 15 9.02 15 8 15 C8 13.02 8 11.04 8 9 C6.02 9 4.04 9 2 9 C2 9.99 2 10.98 2 12 C2.66 12 3.32 12 4 12 C4 12.66 4 13.32 4 14 C2.35 13.67 0.7 13.34 -1 13 C-1 11.02 -1 9.04 -1 7 C0.75 5.875 0.75 5.875 3 5 C5.25 5.875 5.25 5.875 7 7 C5.33045181 3.77595022 5.33045181 3.77595022 2.375 3.3125 C1.59125 3.209375 0.8075 3.10625 0 3 C0 2.01 0 1.02 0 0 Z " fill="#636161" transform="translate(5,46)"/>
<path d="M0 0 C0.99 0 1.98 0 3 0 C3.84026396 1.76755526 4.67198722 3.53917263 5.5 5.3125 C5.9640625 6.29863281 6.428125 7.28476562 6.90625 8.30078125 C8 11 8 11 8 14 C6.68 14 5.36 14 4 14 C4 13.01 4 12.02 4 11 C2.35 11 0.7 11 -1 11 C-1 11.99 -1 12.98 -1 14 C-2.32 14 -3.64 14 -5 14 C-4.34580901 8.93001981 -2.1453591 4.58009223 0 0 Z " fill="#17140F" transform="translate(36,49)"/>
<path d="M0 0 C1.32 0 2.64 0 4 0 C4 0.99 4 1.98 4 3 C4.99 3 5.98 3 7 3 C6.25 7.75 6.25 7.75 4 10 C1.5390625 10.6328125 1.5390625 10.6328125 -1.375 11.125 C-2.33148438 11.29257812 -3.28796875 11.46015625 -4.2734375 11.6328125 C-7 12 -7 12 -11 12 C-11 12.66 -11 13.32 -11 14 C-11.66 14 -12.32 14 -13 14 C-13.33 14.99 -13.66 15.98 -14 17 C-13.67 14.69 -13.34 12.38 -13 10 C-12.34 10 -11.68 10 -11 10 C-11 8.02 -11 6.04 -11 4 C-10.67 4 -10.34 4 -10 4 C-10 5.98 -10 7.96 -10 10 C-4.59212615 8.90213575 -4.59212615 8.90213575 -1 5 C-0.61500109 3.34450469 -0.27206865 1.6777567 0 0 Z " fill="#2C3542" transform="translate(39,31)"/>
<path d="M0 0 C0.66 0.33 1.32 0.66 2 1 C1.67 2.32 1.34 3.64 1 5 C1.66 5 2.32 5 3 5 C2.67 6.32 2.34 7.64 2 9 C0.68 9.33 -0.64 9.66 -2 10 C-2.66 12.97 -3.32 15.94 -4 19 C-6.31 18.67 -8.62 18.34 -11 18 C-8.9894582 13.34400845 -6.93114772 11.10353767 -3 8 C-2.13034494 5.87053397 -2.13034494 5.87053397 -2 4 C-3.32 4.99 -4.64 5.98 -6 7 C-6 5.35 -6 3.7 -6 2 C-4.02 2 -2.04 2 0 2 C0 1.34 0 0.68 0 0 Z " fill="#212128" transform="translate(13,17)"/>
<path d="M0 0 C1.32 0 2.64 0 4 0 C4.33 1.65 4.66 3.3 5 5 C9.455 4.505 9.455 4.505 14 4 C13.34 5.32 12.68 6.64 12 8 C9.36 8 6.72 8 4 8 C4 8.66 4 9.32 4 10 C1.69 9.67 -0.62 9.34 -3 9 C-2.44271087 5.65626525 -1.64826111 2.96687001 0 0 Z " fill="#8F9EAA" transform="translate(12,35)"/>
<path d="M0 0 C2.475 0.495 2.475 0.495 5 1 C4.25 5.75 4.25 5.75 2 8 C1.6823754 9.91006306 1.6823754 9.91006306 1.75 12 C1.74484375 12.70125 1.7396875 13.4025 1.734375 14.125 C1.84294485 16.2435669 1.84294485 16.2435669 4 18 C8.16937798 18.23600253 11.94392005 17.98329211 16 17 C16 17.66 16 18.32 16 19 C17.32 19.33 18.64 19.66 20 20 C13.4 20 6.8 20 0 20 C0 13.4 0 6.8 0 0 Z " fill="#7E7E7D" transform="translate(0,44)"/>
<path d="M0 0 C0.99 0.33 1.98 0.66 3 1 C3.05392397 3.77109307 3.09363455 6.54113818 3.125 9.3125 C3.14175781 10.09818359 3.15851563 10.88386719 3.17578125 11.69335938 C3.18222656 12.45068359 3.18867187 13.20800781 3.1953125 13.98828125 C3.20578613 14.68477783 3.21625977 15.38127441 3.22705078 16.09887695 C3 18 3 18 1 21 C0.34 20.67 -0.32 20.34 -1 20 C-0.814375 18.96875 -0.62875 17.9375 -0.4375 16.875 C-0.02692918 13.23851558 -0.221691 10.54562991 -1 7 C-1.66 7 -2.32 7 -3 7 C-3.33 5.68 -3.66 4.36 -4 3 C-2.68 3 -1.36 3 0 3 C0 2.01 0 1.02 0 0 Z " fill="#303A45" transform="translate(61,21)"/>
<path d="M0 0 C3.11954738 0.33724836 4.6209965 0.6209965 6.875 2.875 C7.24625 3.57625 7.6175 4.2775 8 5 C7.67 5.99 7.34 6.98 7 8 C4.69 7.34 2.38 6.68 0 6 C0 6.99 0 7.98 0 9 C-3.63 9.33 -7.26 9.66 -11 10 C-11 9.34 -11 8.68 -11 8 C-10.278125 8.103125 -9.55625 8.20625 -8.8125 8.3125 C-4.82682804 7.86964756 -3.5172078 6.00666487 -1 3 C-0.67 2.01 -0.34 1.02 0 0 Z " fill="#454C58" transform="translate(25,22)"/>
<path d="M0 0 C3.96 0 7.92 0 12 0 C11.67 1.32 11.34 2.64 11 4 C9.68 4 8.36 4 7 4 C6.67 4.99 6.34 5.98 6 7 C1.25 6.125 1.25 6.125 -1 5 C-0.67 3.35 -0.34 1.7 0 0 Z " fill="#25262C" transform="translate(41,8)"/>
<path d="M0 0 C1.2065625 0.0309375 1.2065625 0.0309375 2.4375 0.0625 C2.4375 1.3825 2.4375 2.7025 2.4375 4.0625 C3.7575 4.7225 5.0775 5.3825 6.4375 6.0625 C5.4475 7.0525 4.4575 8.0425 3.4375 9.0625 C3.4375 8.4025 3.4375 7.7425 3.4375 7.0625 C2.48875 7.10375 1.54 7.145 0.5625 7.1875 C-2.5625 7.0625 -2.5625 7.0625 -4.5625 5.0625 C-3.80953264 0.09291543 -3.80953264 0.09291543 0 0 Z " fill="#282C36" transform="translate(8.5625,0.9375)"/>
<path d="M0 0 C2.97 0 5.94 0 9 0 C9.1875 2.375 9.1875 2.375 9 5 C6 7 6 7 3.375 6.6875 C1 6 1 6 0 5 C-0.04063832 3.33382885 -0.042721 1.66611905 0 0 Z " fill="#2E333E" transform="translate(1,35)"/>
<path d="M0 0 C0.99 0.33 1.98 0.66 3 1 C3 1.66 3 2.32 3 3 C3.66 3.33 4.32 3.66 5 4 C1.87656337 6.08229108 1.46147078 6.23770457 -2.01171875 5.9765625 C-2.76904297 5.925 -3.52636719 5.8734375 -4.30664062 5.8203125 C-5.48516602 5.72363281 -5.48516602 5.72363281 -6.6875 5.625 C-7.48478516 5.56828125 -8.28207031 5.5115625 -9.10351562 5.453125 C-11.06973581 5.31183972 -13.03498824 5.15720094 -15 5 C-12.22957891 2.22957891 -10.23466195 2.60203894 -6.375 2.375 C-5.18648437 2.30023438 -3.99796875 2.22546875 -2.7734375 2.1484375 C-1.40058594 2.07496094 -1.40058594 2.07496094 0 2 C0 1.34 0 0.68 0 0 Z " fill="#1E1F28" transform="translate(31,7)"/>
<path d="M0 0 C0 4.62 0 9.24 0 14 C-0.99 13.34 -1.98 12.68 -3 12 C-3 11.34 -3 10.68 -3 10 C-4.32 9.34 -5.64 8.68 -7 8 C-2.45945946 0 -2.45945946 0 0 0 Z " fill="#969695" transform="translate(64,39)"/>
<path d="M0 0 C0.66 0 1.32 0 2 0 C2 0.66 2 1.32 2 2 C1.34 2.66 0.68 3.32 0 4 C0 4.66 0 5.32 0 6 C1.98 6 3.96 6 6 6 C5.67 6.99 5.34 7.98 5 9 C5 8.34 5 7.68 5 7 C0.545 7.495 0.545 7.495 -4 8 C-4.33 6.35 -4.66 4.7 -5 3 C-5.99 3 -6.98 3 -8 3 C-8 2.34 -8 1.68 -8 1 C-6.865625 1.020625 -5.73125 1.04125 -4.5625 1.0625 C-1.18424326 1.41577477 -1.18424326 1.41577477 0 0 Z " fill="#5A6B7C" transform="translate(21,32)"/>
<path d="M0 0 C0.625 1.8125 0.625 1.8125 1 4 C0.01 5.485 0.01 5.485 -1 7 C-1.66 7 -2.32 7 -3 7 C-2.67 7.99 -2.34 8.98 -2 10 C-1.01 9.67 -0.02 9.34 1 9 C0.75 11.375 0.75 11.375 0 14 C-2.046875 15.1640625 -2.046875 15.1640625 -4 16 C-4.1080023 13.89695523 -4.18558987 11.79233091 -4.25 9.6875 C-4.31960937 7.92986328 -4.31960937 7.92986328 -4.390625 6.13671875 C-4 3 -4 3 -1.984375 1.08203125 C-1.32953125 0.72496094 -0.6746875 0.36789062 0 0 Z " fill="#312D32" transform="translate(10,12)"/>
<path d="M0 0 C0.66 0 1.32 0 2 0 C2.02712153 1.916588 2.04645097 3.8332873 2.0625 5.75 C2.07410156 6.81734375 2.08570313 7.8846875 2.09765625 8.984375 C2.01373814 11.57576626 1.94664247 13.59823281 1 16 C0.01 16.66 -0.98 17.32 -2 18 C-3.19232613 20.05003955 -3.19232613 20.05003955 -4 22 C-4.37614329 15.48018293 -4.37614329 15.48018293 -2.53125 13.125 C-0.59057275 10.43181524 -0.50812859 8.53656039 -0.3125 5.25 C-0.21388672 3.77273437 -0.21388672 3.77273437 -0.11328125 2.265625 C-0.07589844 1.51796875 -0.03851563 0.7703125 0 0 Z " fill="#616163" transform="translate(4,17)"/>
<path d="M0 0 C1.32 0 2.64 0 4 0 C4.25 5.625 4.25 5.625 2 9 C-0.625 9.1875 -0.625 9.1875 -3 9 C-2.44271087 5.65626525 -1.64826111 2.96687001 0 0 Z " fill="#8FA2B0" transform="translate(12,35)"/>
<path d="M0 0 C0.99 0 1.98 0 3 0 C3 4.62 3 9.24 3 14 C2.01 14 1.02 14 0 14 C0 9.38 0 4.76 0 0 Z " fill="#000000" transform="translate(46,49)"/>
<path d="M0 0 C0.99 0.33 1.98 0.66 3 1 C2.01 1.66 1.02 2.32 0 3 C0.33 4.32 0.66 5.64 1 7 C3.97 7.495 3.97 7.495 7 8 C7 8.66 7 9.32 7 10 C6.34 10 5.68 10 5 10 C4.896875 10.639375 4.79375 11.27875 4.6875 11.9375 C4.460625 12.618125 4.23375 13.29875 4 14 C3.01 14.33 2.02 14.66 1 15 C1.33 13.35 1.66 11.7 2 10 C1.01 9.67 0.02 9.34 -1 9 C-3 6 -3 6 -3 2 C-2.01 1.34 -1.02 0.68 0 0 Z " fill="#747376" transform="translate(5,0)"/>
<path d="M0 0 C0.66 0.33 1.32 0.66 2 1 C2 2.32 2 3.64 2 5 C1.01 5.495 1.01 5.495 0 6 C0 8.97 0 11.94 0 15 C-0.99 15.33 -1.98 15.66 -3 16 C-2.88658509 13.51979503 -2.75985314 11.04155031 -2.625 8.5625 C-2.5940625 7.85544922 -2.563125 7.14839844 -2.53125 6.41992188 C-2.42719371 4.60760812 -2.22080108 2.80182012 -2 1 C-1.34 0.67 -0.68 0.34 0 0 Z " fill="#1F252F" transform="translate(55,17)"/>
<path d="M0 0 C0.99 0 1.98 0 3 0 C6 3.33333333 6 3.33333333 6 6 C6.99 6.33 7.98 6.66 9 7 C9 8.32 9 9.64 9 11 C9.66 11 10.32 11 11 11 C10.67 11.66 10.34 12.32 10 13 C9.34 12.67 8.68 12.34 8 12 C7.375 9.9375 7.375 9.9375 7 8 C6.05125 7.938125 5.1025 7.87625 4.125 7.8125 C1 7 1 7 -0.4375 4.5625 C-1 2 -1 2 0 0 Z " fill="#4B494D" transform="translate(53,9)"/>
<path d="M0 0 C1.33332095 2.6666419 0.67102033 4.16680303 0 7 C0.66 7 1.32 7 2 7 C1.67 9.97 1.34 12.94 1 16 C-1 12 -1 12 -1 8 C-2.32 7.67 -3.64 7.34 -5 7 C-4.34 6.67 -3.68 6.34 -3 6 C-2.29788106 4.34795544 -1.63028587 2.68076231 -1 1 C-0.67 0.67 -0.34 0.34 0 0 Z " fill="#59626B" transform="translate(25,41)"/>
<path d="M0 0 C1.32 0.66 2.64 1.32 4 2 C3.67 4.31 3.34 6.62 3 9 C1.68 9 0.36 9 -1 9 C-1.09765625 2.84765625 -1.09765625 2.84765625 -1 1 C-0.67 0.67 -0.34 0.34 0 0 Z " fill="#7B7B7B" transform="translate(56,51)"/>
<path d="M0 0 C2.97 0.495 2.97 0.495 6 1 C5.37240135 3.92879371 4.41377341 6.36095629 3 9 C1.68 9 0.36 9 -1 9 C-0.67 6.03 -0.34 3.06 0 0 Z " fill="#3B3C43" transform="translate(10,10)"/>
<path d="M0 0 C1.32 0 2.64 0 4 0 C3.47731534 2.76276177 2.89130413 5.3260876 2 8 C0.68 8 -0.64 8 -2 8 C-1.125 1.125 -1.125 1.125 0 0 Z " fill="#55514D" transform="translate(31,50)"/>
<path d="M0 0 C0.33 0 0.66 0 1 0 C0.67 4.62 0.34 9.24 0 14 C-1.32 14 -2.64 14 -4 14 C-4 13.01 -4 12.02 -4 11 C-4.66 10.67 -5.32 10.34 -6 10 C-4.68 10 -3.36 10 -2 10 C-2.04125 9.0925 -2.0825 8.185 -2.125 7.25 C-2.00468444 4.1217954 -1.6085292 2.61385994 0 0 Z " fill="#2C3340" transform="translate(52,19)"/>
<path d="M0 0 C0.33 0.66 0.66 1.32 1 2 C0.67 2.66 0.34 3.32 0 4 C-2.31 4 -4.62 4 -7 4 C-7 2.68 -7 1.36 -7 0 C-4.30234372 -1.34882814 -2.84835666 -0.80338265 0 0 Z " fill="#4F4D55" transform="translate(51,16)"/>
<path d="M0 0 C0 0.66 0 1.32 0 2 C-0.99 2.33 -1.98 2.66 -3 3 C-3.99 4.485 -3.99 4.485 -5 6 C-6.32 6 -7.64 6 -9 6 C-8.8125 4.1875 -8.8125 4.1875 -8 2 C-3.744 -1.248 -3.744 -1.248 0 0 Z " fill="#A47C2E" transform="translate(55,43)"/>
<path d="M0 0 C1.98 0 3.96 0 6 0 C5.34 2.97 4.68 5.94 4 9 C3.34 9 2.68 9 2 9 C2 7.02 2 5.04 2 3 C1.34 3 0.68 3 0 3 C0 2.01 0 1.02 0 0 Z " fill="#67717A" transform="translate(16,46)"/>
<path d="M0 0 C2.475 0.99 2.475 0.99 5 2 C5 2.99 5 3.98 5 5 C6.32 5 7.64 5 9 5 C9 5.66 9 6.32 9 7 C6.03 6.67 3.06 6.34 0 6 C0 4.02 0 2.04 0 0 Z " fill="#222834" transform="translate(43,28)"/>
<path d="M0 0 C0.33 0.66 0.66 1.32 1 2 C1.78375 1.79375 2.5675 1.5875 3.375 1.375 C4.674375 1.189375 4.674375 1.189375 6 1 C6.66 1.66 7.32 2.32 8 3 C7.071875 3.268125 6.14375 3.53625 5.1875 3.8125 C2.20270088 4.92448399 1.01587906 5.66582425 -1 8 C-1.33 8 -1.66 8 -2 8 C-2.20086443 4.28400809 -2.1519437 3.22791555 0 0 Z " fill="#524C48" transform="translate(51,46)"/>
<path d="M0 0 C0.33 0.99 0.66 1.98 1 3 C-2.33333333 4.66666667 -5.66666667 6.33333333 -9 8 C-7.68 5.69 -6.36 3.38 -5 1 C-3.35 1.33 -1.7 1.66 0 2 C0 1.34 0 0.68 0 0 Z " fill="#171A24" transform="translate(52,33)"/>
<path d="M0 0 C0.66 0 1.32 0 2 0 C2 1.98 2 3.96 2 6 C2.66 6 3.32 6 4 6 C4 6.66 4 7.32 4 8 C2.35 7.67 0.7 7.34 -1 7 C-1.04254356 5.00045254 -1.04080783 2.99958364 -1 1 C-0.67 0.67 -0.34 0.34 0 0 Z " fill="#99896C" transform="translate(5,52)"/>
<path d="M0 0 C3.63 0 7.26 0 11 0 C11 0.99 11 1.98 11 3 C9.68 2.67 8.36 2.34 7 2 C6.67 2.99 6.34 3.98 6 5 C4.02 4.34 2.04 3.68 0 3 C0 2.01 0 1.02 0 0 Z " fill="#4E4C4C" transform="translate(5,46)"/>
<path d="M0 0 C1.65 0.33 3.3 0.66 5 1 C5.33 1.99 5.66 2.98 6 4 C2.98968256 4.93423645 2.13349732 5.04449911 -1 4 C-0.67 2.68 -0.34 1.36 0 0 Z " fill="#32353D" transform="translate(48,11)"/>
<path d="M0 0 C0.99 0.33 1.98 0.66 3 1 C3 2.65 3 4.3 3 6 C1.68 6 0.36 6 -1 6 C-1 5.34 -1 4.68 -1 4 C-1.99 4.33 -2.98 4.66 -4 5 C-4 4.34 -4 3.68 -4 3 C-2.68 3 -1.36 3 0 3 C0 2.01 0 1.02 0 0 Z " fill="#2B2731" transform="translate(61,21)"/>
<path d="M0 0 C1.32 1.32 2.64 2.64 4 4 C3.67 4.99 3.34 5.98 3 7 C0.69 6.34 -1.62 5.68 -4 5 C-2.25 1.125 -2.25 1.125 0 0 Z " fill="#4A4549" transform="translate(29,23)"/>
<path d="M0 0 C0.33 0 0.66 0 1 0 C1 3.63 1 7.26 1 11 C-1.64 11 -4.28 11 -7 11 C-7 10.67 -7 10.34 -7 10 C-5.35 9.67 -3.7 9.34 -2 9 C-1.34 6.03 -0.68 3.06 0 0 Z " fill="#707070" transform="translate(63,53)"/>
<path d="M0 0 C0.33 1.32 0.66 2.64 1 4 C0.38125 4.144375 -0.2375 4.28875 -0.875 4.4375 C-3.03258322 4.93152225 -3.03258322 4.93152225 -5 6 C-5.103125 5.360625 -5.20625 4.72125 -5.3125 4.0625 C-5.539375 3.381875 -5.76625 2.70125 -6 2 C-6.99 1.67 -7.98 1.34 -9 1 C-6.03 1.33 -3.06 1.66 0 2 C0 1.34 0 0.68 0 0 Z " fill="#453B31" transform="translate(45,47)"/>
<path d="M0 0 C0 1.65 0 3.3 0 5 C-1.65 5 -3.3 5 -5 5 C-4.625 3.0625 -4.625 3.0625 -4 1 C-2 0 -2 0 0 0 Z " fill="#A2B9CB" transform="translate(14,39)"/>
<path d="M0 0 C0.66 0 1.32 0 2 0 C2 0.66 2 1.32 2 2 C2.66 2 3.32 2 4 2 C3.67 4.64 3.34 7.28 3 10 C0.64551835 7.44931155 0.01672076 6.28982642 -0.1875 2.75 C-0.125625 1.8425 -0.06375 0.935 0 0 Z " fill="#404854" transform="translate(25,31)"/>
<path d="M0 0 C2.475 0.495 2.475 0.495 5 1 C4.67 2.65 4.34 4.3 4 6 C3.34 6 2.68 6 2 6 C1.34 5.34 0.68 4.68 0 4 C0 2.68 0 1.36 0 0 Z " fill="#A7977A" transform="translate(0,44)"/>
<path d="M0 0 C0.33 0.66 0.66 1.32 1 2 C1.99 2.33 2.98 2.66 4 3 C1 5 1 5 -3 5 C-3 4.01 -3 3.02 -3 2 C-2.01 2 -1.02 2 0 2 C0 1.34 0 0.68 0 0 Z " fill="#282422" transform="translate(55,43)"/>
<path d="M0 0 C2.475 0.99 2.475 0.99 5 2 C5 2.66 5 3.32 5 4 C3.35 4.33 1.7 4.66 0 5 C-0.5625 3.0625 -0.5625 3.0625 -1 1 C-0.67 0.67 -0.34 0.34 0 0 Z " fill="#323A46" transform="translate(16,0)"/>
<path d="M0 0 C2.31 0 4.62 0 7 0 C6.01 1.485 6.01 1.485 5 3 C2.375 3.1875 2.375 3.1875 0 3 C0 2.01 0 1.02 0 0 Z " fill="#6E7983" transform="translate(17,43)"/>
<path d="M0 0 C1.65 1.65 3.3 3.3 5 5 C4.01 5.66 3.02 6.32 2 7 C0 5 0 5 -0.125 2.375 C-0.08375 1.59125 -0.0425 0.8075 0 0 Z " fill="#80878A" transform="translate(0,39)"/>
<path d="M0 0 C3.465 1.485 3.465 1.485 7 3 C4 5 4 5 1.8125 4.625 C1.214375 4.41875 0.61625 4.2125 0 4 C0 2.68 0 1.36 0 0 Z " fill="#1C1C21" transform="translate(1,35)"/>
<path d="M0 0 C1.9375 0.625 1.9375 0.625 4 2 C4.75 5.125 4.75 5.125 5 8 C4.34 8 3.68 8 3 8 C0 2.25 0 2.25 0 0 Z " fill="#111017" transform="translate(55,15)"/>
<path d="M0 0 C1.32 0 2.64 0 4 0 C4 1.65 4 3.3 4 5 C2.68 4.67 1.36 4.34 0 4 C0 2.68 0 1.36 0 0 Z " fill="#0D0C11" transform="translate(42,10)"/>
<path d="M0 0 C0.66 0 1.32 0 2 0 C2 1.98 2 3.96 2 6 C1.01 6 0.02 6 -1 6 C-1.042721 4.33388095 -1.04063832 2.66617115 -1 1 C-0.67 0.67 -0.34 0.34 0 0 Z " fill="#D7AE68" transform="translate(43,52)"/>
<path d="M0 0 C1.67542976 0.28604898 3.34385343 0.61781233 5 1 C5.33 1.99 5.66 2.98 6 4 C3.03824877 3.38722388 1.61941217 2.74627478 -1 1 C-0.67 0.67 -0.34 0.34 0 0 Z " fill="#020201" transform="translate(6,49)"/>
<path d="M0 0 C1.32 0.33 2.64 0.66 4 1 C3.01 2.98 2.02 4.96 1 7 C0.67 7 0.34 7 0 7 C0 4.69 0 2.38 0 0 Z " fill="#3B4553" transform="translate(10,32)"/>
<path d="M0 0 C0.99 0.33 1.98 0.66 3 1 C3 2.32 3 3.64 3 5 C1.68 5 0.36 5 -1 5 C-0.67 3.35 -0.34 1.7 0 0 Z " fill="#13151E" transform="translate(44,22)"/>
<path d="M0 0 C0.99 0 1.98 0 3 0 C3 0.66 3 1.32 3 2 C4.65 2 6.3 2 8 2 C8 2.33 8 2.66 8 3 C4.37 3 0.74 3 -3 3 C-2.01 2.01 -1.02 1.02 0 0 Z " fill="#1B1A21" transform="translate(18,4)"/>
</svg>
